<?xml version="1.0" encoding="us-ascii" standalone="no"?><svg xmlns="http://www.w3.org/2000/svg" xmlns:xlink="http://www.w3.org/1999/xlink" contentStyleType="text/css" height="256px" preserveAspectRatio="none" style="width:1414px;height:256px;background:#FFFFFF;" version="1.1" viewBox="0 0 1414 256" width="1414px" zoomAndPan="magnify"><defs/><g><ellipse cx="64" cy="16" fill="#181818" rx="10" ry="10" style="stroke:none;stroke-width:1.0;"/><g id="State1"><rect fill="#F1F1F1" height="50.2656" rx="12.5" ry="12.5" style="stroke:#181818;stroke-width:0.5;" width="114" x="7" y="103"/><line style="stroke:#181818;stroke-width:0.5;" x1="7" x2="121" y1="129.2969" y2="129.2969"/><text fill="#000000" font-family="sans-serif" font-size="14" lengthAdjust="spacing" textLength="49" x="39.5" y="120.9951">State1</text><text fill="#000000" font-family="sans-serif" font-size="12" lengthAdjust="spacing" textLength="94" x="12" y="145.4355">Warte auf Karte</text></g><g id="State2"><rect fill="#F1F1F1" height="50.2656" rx="12.5" ry="12.5" style="stroke:#181818;stroke-width:0.5;" width="132" x="328" y="103"/><line style="stroke:#181818;stroke-width:0.5;" x1="328" x2="460" y1="129.2969" y2="129.2969"/><text fill="#000000" font-family="sans-serif" font-size="14" lengthAdjust="spacing" textLength="48" x="370" y="120.9951">State2</text><text fill="#000000" font-family="sans-serif" font-size="12" lengthAdjust="spacing" textLength="112" x="333" y="145.4355">Schreibe auf Karte</text></g><g id="State5"><rect fill="#F1F1F1" height="50.2656" rx="12.5" ry="12.5" style="stroke:#181818;stroke-width:0.5;" width="159" x="1248.5" y="103"/><line style="stroke:#181818;stroke-width:0.5;" x1="1248.5" x2="1407.5" y1="129.2969" y2="129.2969"/><text fill="#000000" font-family="sans-serif" font-size="14" lengthAdjust="spacing" textLength="49" x="1303.5" y="120.9951">State5</text><text fill="#000000" font-family="sans-serif" font-size="12" lengthAdjust="spacing" textLength="139" x="1253.5" y="145.4355">Erstelle Fehlermeldung</text></g><g id="State3"><rect fill="#F1F1F1" height="50.2656" rx="12.5" ry="12.5" style="stroke:#181818;stroke-width:0.5;" width="248" x="632" y="103"/><line style="stroke:#181818;stroke-width:0.5;" x1="632" x2="880" y1="129.2969" y2="129.2969"/><text fill="#000000" font-family="sans-serif" font-size="14" lengthAdjust="spacing" textLength="49" x="731.5" y="120.9951">State3</text><text fill="#000000" font-family="sans-serif" font-size="12" lengthAdjust="spacing" textLength="228" x="637" y="145.4355">Speichere ID und Datum in Datenbank</text></g><g id="State4"><rect fill="#F1F1F1" height="50.2656" rx="12.5" ry="12.5" style="stroke:#181818;stroke-width:0.5;" width="140" x="1073" y="103"/><line style="stroke:#181818;stroke-width:0.5;" x1="1073" x2="1213" y1="129.2969" y2="129.2969"/><text fill="#000000" font-family="sans-serif" font-size="14" lengthAdjust="spacing" textLength="48" x="1119" y="120.9951">State4</text><text fill="#000000" font-family="sans-serif" font-size="12" lengthAdjust="spacing" textLength="120" x="1078" y="145.4355">Erstelle Best&#228;tigung</text></g><ellipse cx="1240" cy="240" fill="none" rx="10" ry="10" style="stroke:#181818;stroke-width:1.0;"/><ellipse cx="1240.5" cy="240.5" fill="#181818" rx="6" ry="6" style="stroke:none;stroke-width:1.0;"/><!--link *start* to State1--><g id="link_*start*_State1"><path d="M64,26.002 C64,42.627 64,72.655 64,96.873 " fill="none" id="*start*-to-State1" style="stroke:#181818;stroke-width:1.0;"/><polygon fill="#181818" points="64,102.873,68,93.873,64,97.873,60,93.873,64,102.873" style="stroke:#181818;stroke-width:1.0;"/></g><!--link State1 to State2--><g id="link_State1_State2"><path d="M121.276,139.87 C139.916,143.197 160.758,146.353 180,148 C219.412,151.3727 229.569,151.1346 269,148 C288.17,146.476 302.9146,144.6127 321.8186,141.5627 " fill="none" id="State1-to-State2" style="stroke:#181818;stroke-width:1.0;"/><polygon fill="#181818" points="327.742,140.607,318.2198,138.0916,322.8058,141.4034,319.494,145.9895,327.742,140.607" style="stroke:#181818;stroke-width:1.0;"/><text fill="#000000" font-family="sans-serif" font-size="13" lengthAdjust="spacing" textLength="87" x="181" y="144.0669">Karte erkannt</text></g><!--reverse link State1 to State2--><g id="link_State1_State2"><path d="M127.105,128 C184.661,128 267.407,128 327.957,128 " fill="none" id="State1-backto-State2" style="stroke:#181818;stroke-width:1.0;"/><polygon fill="#181818" points="121.105,128,130.105,132,126.105,128,130.105,124,121.105,128" style="stroke:#181818;stroke-width:1.0;"/><text fill="#000000" font-family="sans-serif" font-size="13" lengthAdjust="spacing" textLength="170" x="139.5" y="121.0669">Schreiben nicht erfolgreich</text></g><!--link State1 to State5--><g id="link_State1_State5"><path d="M121.214,117.544 C206.363,102.566 371.641,75.737 513.5,66 C672.782,55.067 1073.23,78.507 1231,103 C1236.67,103.88 1236.6116,103.7471 1242.4516,104.9411 " fill="none" id="State1-to-State5" style="stroke:#181818;stroke-width:1.0;"/><polygon fill="#181818" points="1248.33,106.143,1240.3136,100.4213,1243.4313,105.1415,1238.7112,108.2592,1248.33,106.143" style="stroke:#181818;stroke-width:1.0;"/><text fill="#000000" font-family="sans-serif" font-size="13" lengthAdjust="spacing" textLength="53" x="514.5" y="69.0669">Timeout</text></g><!--link State2 to State3--><g id="link_State2_State3"><path d="M460.396,128 C508.261,128 568.29,128 625.804,128 " fill="none" id="State2-to-State3" style="stroke:#181818;stroke-width:1.0;"/><polygon fill="#181818" points="631.804,128,622.804,124,626.804,128,622.804,132,631.804,128" style="stroke:#181818;stroke-width:1.0;"/><text fill="#000000" font-family="sans-serif" font-size="13" lengthAdjust="spacing" textLength="135" x="478.5" y="121.0669">Schreiben erfolgreich</text></g><!--link State3 to State5--><g id="link_State3_State5"><path d="M823.488,102.863 C864.491,88.946 918.262,73.068 967.5,66 C1009.95,59.906 1118.28,58.437 1160.5,66 C1200.18,73.108 1237.2391,86.6122 1269.5391,100.5192 " fill="none" id="State3-to-State5" style="stroke:#181818;stroke-width:1.0;"/><polygon fill="#181818" points="1275.05,102.892,1268.3655,95.6589,1270.4576,100.9147,1265.2018,103.0068,1275.05,102.892" style="stroke:#181818;stroke-width:1.0;"/><text fill="#000000" font-family="sans-serif" font-size="13" lengthAdjust="spacing" textLength="191" x="968.5" y="69.0669">DB schreiben nicht erfolgreich</text></g><!--link State3 to State4--><g id="link_State3_State4"><path d="M880.046,128 C943.829,128 1013.22,128 1066.89,128 " fill="none" id="State3-to-State4" style="stroke:#181818;stroke-width:1.0;"/><polygon fill="#181818" points="1072.89,128,1063.89,124,1067.89,128,1063.89,132,1072.89,128" style="stroke:#181818;stroke-width:1.0;"/><text fill="#000000" font-family="sans-serif" font-size="13" lengthAdjust="spacing" textLength="156" x="898.5" y="121.0669">DB schreiben erfolgreich</text></g><!--link State4 to *end*--><g id="link_State4_*end*"><path d="M1144.51,153.3139 C1146.56,168.1999 1151.27,186.85 1162,200 C1179.99,222.0549 1207.7971,231.3025 1224.3971,235.428 " fill="none" id="State4-to-*end*" style="stroke:#181818;stroke-width:1.0;"/><polygon fill="#181818" points="1230.22,236.8751,1222.4504,230.8225,1225.3676,235.6692,1220.5209,238.5863,1230.22,236.8751" style="stroke:#181818;stroke-width:1.0;"/><text fill="#000000" font-family="sans-serif" font-size="13" lengthAdjust="spacing" textLength="104" x="1163" y="196.0669">Sende Nachricht</text></g><!--link State5 to *end*--><g id="link_State5_*end*"><path d="M1311.32,153.1763 C1301.43,167.1517 1288.43,184.9017 1276,200 C1266.28,211.8089 1258.217,220.404 1250.807,228.0096 " fill="none" id="State5-to-*end*" style="stroke:#181818;stroke-width:1.0;"/><polygon fill="#181818" points="1246.62,232.3071,1255.7656,228.6521,1250.1092,228.7258,1250.0355,223.0694,1246.62,232.3071" style="stroke:#181818;stroke-width:1.0;"/><text fill="#000000" font-family="sans-serif" font-size="13" lengthAdjust="spacing" textLength="104" x="1288" y="196.0669">Sende Nachricht</text></g><!--SRC=[VL6zJiCm4Dxp53SZPQ2qIuGOge24a5YAn80OtEHhRDMvHCvvu7ru4ruCczIH5GIJp_v-hTEc1Q4VvODQJ8qpevY1YxUhTohBEpg84bmNnNnIHQ_A2KZv4pt5QK4ITrFD0C6T5RFC-2Oe3ursCCTSlDBkAdenFGOlY-rjkTWcFHERHai8E0ss2q-DBb9AShh9wJbnHcERCTxXG8yrUMwfLk9xCXm7y57nEP6pUlMUfdzgh0JRbU1tuy2uTvF0Mj0UatnzYkayTyK5tsNu0xI5ws7RZB3zsLBOLlWHEApoMOMuMEnYy2V-3G00]--></g></svg>