<?xml version="1.0" encoding="UTF-8"?> <svg xmlns="http://www.w3.org/2000/svg" viewBox="0 0 465.95 280.73"><defs><style>.cls-1{fill:#008fbe;opacity:0.1;}.cls-2,.cls-3,.cls-5{fill:#003a5d;}.cls-3,.cls-5{font-size:9px;}.cls-3{font-family:Lato-Regular, Lato;}.cls-4{letter-spacing:-0.03em;}.cls-5{font-family:Lato-Black, Lato;font-weight:800;letter-spacing:0.03em;}.cls-6{letter-spacing:-0.01em;}</style></defs><g id="Layer_2" data-name="Layer 2"><g id="Layer_1-2" data-name="Layer 1"><rect class="cls-1" width="465.95" height="250.19"></rect><rect class="cls-1" x="162.35" y="55.88" width="303.45" height="194.3"></rect><rect class="cls-1" x="304.49" y="108.11" width="161.38" height="142.08"></rect><path class="cls-2" d="M28.59,36.5H27.35a.56.56,0,0,1-.35-.11.55.55,0,0,1-.19-.26l-.65-1.77h-3.6l-.64,1.77a.64.64,0,0,1-.19.25.53.53,0,0,1-.35.12H20.13l3.41-8.68h1.65ZM23,33.22h2.76l-1-2.88c-.05-.13-.1-.28-.16-.46s-.12-.36-.17-.56c-.06.2-.11.39-.17.57a3.5,3.5,0,0,1-.16.46Z"></path><path class="cls-2" d="M31.16,33.11V36.5H29.54V27.82h2.65a5.21,5.21,0,0,1,1.52.19,2.89,2.89,0,0,1,1,.51,1.89,1.89,0,0,1,.59.79,2.75,2.75,0,0,1,.06,1.84,2.24,2.24,0,0,1-.37.7,2.3,2.3,0,0,1-.6.56,3.38,3.38,0,0,1-.81.39,1.51,1.51,0,0,1,.52.49l2.18,3.21H34.86a.65.65,0,0,1-.35-.09.64.64,0,0,1-.25-.24L32.43,33.4a.61.61,0,0,0-.22-.23.84.84,0,0,0-.36-.06Zm0-1.16h1a2.71,2.71,0,0,0,.8-.11,1.61,1.61,0,0,0,.56-.32,1.23,1.23,0,0,0,.32-.48,1.46,1.46,0,0,0,.11-.6,1.25,1.25,0,0,0-.43-1,2.13,2.13,0,0,0-1.33-.35h-1Z"></path><path class="cls-2" d="M43.13,27.82v1.33H40.52V36.5H38.9V29.15H36.28V27.82Z"></path><path class="cls-2" d="M46,36.5H44.35V27.82H46Z"></path><path class="cls-2" d="M53.39,27.82v1.29H49.55v2.56h3.24V33H49.55V36.5H47.92V27.82Z"></path><path class="cls-2" d="M56.48,36.5H54.86V27.82h1.62Z"></path><path class="cls-2" d="M64.39,34.45a.34.34,0,0,1,.23.1l.63.69a3.49,3.49,0,0,1-1.3,1,4.5,4.5,0,0,1-1.85.34,4.17,4.17,0,0,1-1.73-.33,3.76,3.76,0,0,1-1.32-.91,4.23,4.23,0,0,1-.84-1.41,5.36,5.36,0,0,1-.29-1.78,4.71,4.71,0,0,1,.33-1.79,4,4,0,0,1,.91-1.4,4.21,4.21,0,0,1,1.4-.92,5,5,0,0,1,1.81-.32,4.18,4.18,0,0,1,1.69.31,3.71,3.71,0,0,1,1.24.81l-.54.75a.49.49,0,0,1-.12.13.33.33,0,0,1-.21.05.48.48,0,0,1-.28-.1,3.43,3.43,0,0,0-.37-.24,2.79,2.79,0,0,0-.56-.23,3.22,3.22,0,0,0-2,.1,2.66,2.66,0,0,0-.89.61,3,3,0,0,0-.57,1,3.6,3.6,0,0,0-.21,1.27,3.73,3.73,0,0,0,.21,1.3,2.83,2.83,0,0,0,.56,1,2.45,2.45,0,0,0,.83.6,2.58,2.58,0,0,0,1,.21,5,5,0,0,0,.59,0,2.61,2.61,0,0,0,.5-.11,2.3,2.3,0,0,0,.42-.2,3.6,3.6,0,0,0,.4-.31.57.57,0,0,1,.13-.08A.23.23,0,0,1,64.39,34.45Z"></path><path class="cls-2" d="M68.29,36.5H66.67V27.82h1.62Z"></path><path class="cls-2" d="M77.87,36.5H76.62a.56.56,0,0,1-.35-.11.55.55,0,0,1-.19-.26l-.65-1.77H71.84l-.65,1.77a.56.56,0,0,1-.19.25.53.53,0,0,1-.35.12H69.4l3.41-8.68h1.65Zm-5.62-3.28H75L74,30.34c0-.13-.1-.28-.16-.46s-.11-.36-.17-.56c-.06.2-.11.39-.16.57s-.11.33-.16.46Z"></path><path class="cls-2" d="M80.37,35.17h3.48V36.5H78.76V27.82h1.61Z"></path><path class="cls-2" d="M22.79,50.9H21.17V42.22h1.62Z"></path><path class="cls-2" d="M25.76,42.23l.13,0a.28.28,0,0,1,.11.08.77.77,0,0,1,.12.13l4.56,5.8c0-.14,0-.27,0-.41s0-.26,0-.37V42.22h1.43V50.9h-.84a.76.76,0,0,1-.32-.06.69.69,0,0,1-.24-.22l-4.54-5.77,0,.38c0,.12,0,.24,0,.34V50.9H24.74V42.22h1Z"></path><path class="cls-2" d="M39.92,42.22v1.33H37.31V50.9H35.7V43.55H33.08V42.22Z"></path><path class="cls-2" d="M46.42,42.22v1.29H42.57v2.4h3v1.24h-3v2.46h3.85V50.9H41V42.22Z"></path><path class="cls-2" d="M49.43,49.57h3.48V50.9H47.82V42.22h1.61Z"></path><path class="cls-2" d="M55.64,49.57h3.47V50.9H54V42.22h1.62Z"></path><path class="cls-2" d="M62,50.9H60.42V42.22H62Z"></path><path class="cls-2" d="M68,49.71a3.85,3.85,0,0,0,1-.1,3.9,3.9,0,0,0,.77-.27V47.76H68.61a.32.32,0,0,1-.24-.09.26.26,0,0,1-.09-.21v-.91h2.88v3.51a4.79,4.79,0,0,1-.68.42,5.7,5.7,0,0,1-.76.29,7.06,7.06,0,0,1-.87.17,7.87,7.87,0,0,1-1,.05,4.32,4.32,0,0,1-1.74-.33,3.87,3.87,0,0,1-1.38-.91,4.13,4.13,0,0,1-.91-1.41,4.7,4.7,0,0,1-.33-1.78,4.91,4.91,0,0,1,.32-1.79,3.91,3.91,0,0,1,2.32-2.32A5.28,5.28,0,0,1,68,42.13a4.89,4.89,0,0,1,1.84.31,4.35,4.35,0,0,1,1.32.82l-.47.73a.42.42,0,0,1-.37.23.59.59,0,0,1-.29-.1l-.39-.23a4.68,4.68,0,0,0-.45-.2,3.57,3.57,0,0,0-.54-.13,3.65,3.65,0,0,0-.7-.06,2.86,2.86,0,0,0-1.16.22,2.52,2.52,0,0,0-.89.61,2.9,2.9,0,0,0-.56,1,3.87,3.87,0,0,0-.2,1.26,4,4,0,0,0,.21,1.34,2.82,2.82,0,0,0,.59,1,2.46,2.46,0,0,0,.9.62A3,3,0,0,0,68,49.71Z"></path><path class="cls-2" d="M78.14,42.22v1.29H74.3v2.4h3v1.24h-3v2.46h3.84V50.9H72.67V42.22Z"></path><path class="cls-2" d="M80.57,42.23l.12,0a.42.42,0,0,1,.12.08l.12.13,4.55,5.8a2.83,2.83,0,0,1,0-.41c0-.13,0-.26,0-.37V42.22h1.42V50.9H86a.73.73,0,0,1-.32-.06.63.63,0,0,1-.25-.22l-4.53-5.77c0,.12,0,.25,0,.38s0,.24,0,.34V50.9H79.54V42.22h1Z"></path><path class="cls-2" d="M94.58,48.85a.32.32,0,0,1,.22.1l.64.7a3.66,3.66,0,0,1-1.3,1,4.5,4.5,0,0,1-1.85.34,4.25,4.25,0,0,1-1.74-.33,3.68,3.68,0,0,1-1.31-.91,3.84,3.84,0,0,1-.84-1.41,5.11,5.11,0,0,1-.29-1.78,4.91,4.91,0,0,1,.32-1.79,4.18,4.18,0,0,1,.91-1.4,4.36,4.36,0,0,1,1.41-.92,5,5,0,0,1,1.81-.32,4.21,4.21,0,0,1,1.69.31,3.78,3.78,0,0,1,1.24.82L95,44a.38.38,0,0,1-.13.12.3.3,0,0,1-.2.06.47.47,0,0,1-.28-.11L94,43.84a3.07,3.07,0,0,0-.56-.23,3,3,0,0,0-.86-.11,3,3,0,0,0-1.13.21,2.72,2.72,0,0,0-.88.61,2.83,2.83,0,0,0-.57,1,3.6,3.6,0,0,0-.21,1.27,3.73,3.73,0,0,0,.21,1.3,2.67,2.67,0,0,0,.56,1,2.36,2.36,0,0,0,.83.6,2.53,2.53,0,0,0,1,.21,5.32,5.32,0,0,0,.6,0,2.35,2.35,0,0,0,.49-.11,2.39,2.39,0,0,0,.43-.2,4.85,4.85,0,0,0,.4-.31l.12-.08A.26.26,0,0,1,94.58,48.85Z"></path><path class="cls-2" d="M102.13,42.22v1.29H98.28v2.4h3v1.24h-3v2.46h3.85V50.9H96.66V42.22Z"></path><path class="cls-2" d="M187.35,82.84l.17.42c0-.15.11-.29.17-.43s.13-.27.2-.4l2.56-4.81a.56.56,0,0,1,.1-.14.38.38,0,0,1,.26-.11h1.4V86h-1.42v-5.6c0-.11,0-.22,0-.35s0-.25,0-.37l-2.62,4.92a.73.73,0,0,1-.23.26.64.64,0,0,1-.34.09h-.22a.64.64,0,0,1-.34-.09.73.73,0,0,1-.23-.26l-2.66-4.94c0,.13,0,.26,0,.39v6H182.8V77.36h1.41a.32.32,0,0,1,.14,0,.42.42,0,0,1,.12.08,1,1,0,0,1,.1.14l2.59,4.82C187.23,82.57,187.29,82.7,187.35,82.84Z"></path><path class="cls-2" d="M201.59,86h-1.25a.48.48,0,0,1-.34-.11.52.52,0,0,1-.2-.26l-.65-1.77h-3.59l-.65,1.77a.52.52,0,0,1-.19.26.55.55,0,0,1-.34.11h-1.26l3.41-8.68h1.65ZM196,82.76h2.77l-1.06-2.88c0-.13-.1-.28-.16-.45s-.11-.37-.17-.57c0,.2-.11.39-.16.57s-.11.33-.16.46Z"></path><path class="cls-2" d="M208.14,84a.3.3,0,0,1,.23.11l.64.69a3.63,3.63,0,0,1-1.3,1,4.57,4.57,0,0,1-1.86.35,4.34,4.34,0,0,1-1.73-.33,3.78,3.78,0,0,1-1.32-.92,4.13,4.13,0,0,1-.84-1.41,5.32,5.32,0,0,1-.29-1.78,4.71,4.71,0,0,1,.33-1.79,4,4,0,0,1,.91-1.4,4.15,4.15,0,0,1,1.41-.92,5,5,0,0,1,1.81-.32,4.16,4.16,0,0,1,1.68.31,3.73,3.73,0,0,1,1.24.82l-.54.75a.46.46,0,0,1-.12.12.33.33,0,0,1-.21.06.5.5,0,0,1-.28-.11,4,4,0,0,0-.37-.24,2.79,2.79,0,0,0-.56-.23,3.22,3.22,0,0,0-2,.1,2.62,2.62,0,0,0-.88.61,2.85,2.85,0,0,0-.58,1,3.6,3.6,0,0,0-.21,1.27,3.73,3.73,0,0,0,.21,1.3,2.83,2.83,0,0,0,.56,1,2.4,2.4,0,0,0,.84.6,2.5,2.5,0,0,0,1,.21,3.49,3.49,0,0,0,.59,0,2.45,2.45,0,0,0,.5-.11,2,2,0,0,0,.42-.2,2.27,2.27,0,0,0,.4-.31A.57.57,0,0,1,208,84,.33.33,0,0,1,208.14,84Z"></path><path class="cls-2" d="M217.54,86h-1.62V82.25h-4.07V86h-1.63V77.36h1.63V81.1h4.07V77.36h1.62Z"></path><path class="cls-2" d="M221.11,86h-1.62V77.36h1.62Z"></path><path class="cls-2" d="M224.09,77.37l.13,0a.38.38,0,0,1,.11.08l.12.13,4.55,5.8,0-.41c0-.13,0-.26,0-.37V77.36h1.42V86h-.83a.73.73,0,0,1-.32-.06.71.71,0,0,1-.25-.22L224.45,80l0,.38V86h-1.42V77.36h1Z"></path><path class="cls-2" d="M237.61,77.36v1.29h-3.85v2.4h3V82.3h-3v2.45h3.85V86h-5.48V77.36Z"></path><path class="cls-2" d="M184.42,99.11h3.47v1.33H182.8V91.76h1.62Z"></path><path class="cls-2" d="M194.48,91.76v1.29h-3.85v2.4h3V96.7h-3v2.45h3.85v1.29H189V91.76Z"></path><path class="cls-2" d="M203.5,100.44h-1.24a.54.54,0,0,1-.35-.1.58.58,0,0,1-.19-.27l-.65-1.77h-3.6l-.64,1.77a.67.67,0,0,1-.19.26.58.58,0,0,1-.35.11H195l3.4-8.68h1.66Zm-5.61-3.28h2.76l-1.05-2.88c0-.13-.1-.28-.16-.45s-.12-.37-.17-.57c-.06.2-.11.39-.17.57a3,3,0,0,1-.16.46Z"></path><path class="cls-2" d="M206.06,97.05v3.39h-1.61V91.76h2.65a5.58,5.58,0,0,1,1.52.19,2.89,2.89,0,0,1,1,.51,2,2,0,0,1,.59.79,2.56,2.56,0,0,1,.19,1,2.53,2.53,0,0,1-.13.83,2.67,2.67,0,0,1-.37.71,2.44,2.44,0,0,1-.6.55,3.27,3.27,0,0,1-.82.39,1.48,1.48,0,0,1,.53.5l2.17,3.2h-1.45a.66.66,0,0,1-.6-.32l-1.83-2.78a.58.58,0,0,0-.22-.22.7.7,0,0,0-.36-.07Zm0-1.16h1a2.71,2.71,0,0,0,.8-.11,1.61,1.61,0,0,0,.56-.32,1.27,1.27,0,0,0,.32-.47,1.54,1.54,0,0,0,.11-.61,1.21,1.21,0,0,0-.43-1A2.07,2.07,0,0,0,207.1,93h-1Z"></path><path class="cls-2" d="M213.28,91.77l.13,0a.28.28,0,0,1,.11.08.77.77,0,0,1,.12.13l4.56,5.8c0-.14,0-.27,0-.41s0-.26,0-.37V91.76h1.43v8.68h-.84a.68.68,0,0,1-.31-.06.63.63,0,0,1-.25-.22l-4.54-5.77,0,.38c0,.12,0,.24,0,.34v5.33h-1.42V91.76h1Z"></path><path class="cls-2" d="M223.15,100.44h-1.62V91.76h1.62Z"></path><path class="cls-2" d="M226.12,91.77l.13,0a.28.28,0,0,1,.11.08.77.77,0,0,1,.12.13l4.56,5.8c0-.14,0-.27,0-.41s0-.26,0-.37V91.76h1.43v8.68h-.84a.68.68,0,0,1-.31-.06.63.63,0,0,1-.25-.22l-4.54-5.77,0,.38c0,.12,0,.24,0,.34v5.33H225.1V91.76h1Z"></path><path class="cls-2" d="M238.15,99.25a3.79,3.79,0,0,0,.95-.1,3.35,3.35,0,0,0,.77-.27V97.3h-1.08a.37.37,0,0,1-.25-.08.29.29,0,0,1-.09-.22v-.91h2.89V99.6a4.89,4.89,0,0,1-.69.42,4.6,4.6,0,0,1-.76.29,7.06,7.06,0,0,1-.87.17,7.74,7.74,0,0,1-1,.06,4.51,4.51,0,0,1-1.75-.33,4.23,4.23,0,0,1-1.38-.92,4.13,4.13,0,0,1-.91-1.41,4.66,4.66,0,0,1-.33-1.78,4.91,4.91,0,0,1,.32-1.79A4,4,0,0,1,236.31,92a5.2,5.2,0,0,1,1.87-.32A4.93,4.93,0,0,1,240,92a4.42,4.42,0,0,1,1.31.82l-.47.73a.41.41,0,0,1-.36.23.6.6,0,0,1-.3-.1l-.39-.23a3.62,3.62,0,0,0-.44-.2,3.71,3.71,0,0,0-.55-.13,3.58,3.58,0,0,0-.7-.06,2.89,2.89,0,0,0-1.16.22,2.39,2.39,0,0,0-.88.62,2.64,2.64,0,0,0-.57,1,3.87,3.87,0,0,0-.2,1.26,4,4,0,0,0,.21,1.34,2.87,2.87,0,0,0,.59,1,2.56,2.56,0,0,0,.9.61A3,3,0,0,0,238.15,99.25Z"></path><path class="cls-2" d="M330.88,130.26a4.51,4.51,0,0,1-.32,1.75,3.91,3.91,0,0,1-.89,1.38,4,4,0,0,1-1.39.89,4.87,4.87,0,0,1-1.79.32h-3.31v-8.68h3.31a4.87,4.87,0,0,1,1.79.32,4.17,4.17,0,0,1,1.39.9,3.87,3.87,0,0,1,.89,1.37A4.54,4.54,0,0,1,330.88,130.26Zm-1.65,0A4,4,0,0,0,329,129a2.66,2.66,0,0,0-.55-1,2.3,2.3,0,0,0-.86-.6,2.93,2.93,0,0,0-1.14-.21h-1.68v6.11h1.68a2.93,2.93,0,0,0,1.14-.21,2.32,2.32,0,0,0,.86-.61,2.66,2.66,0,0,0,.55-1A3.91,3.91,0,0,0,329.23,130.26Z"></path><path class="cls-2" d="M337.62,125.92v1.29h-3.85v2.4h3v1.25h-3v2.45h3.85v1.29h-5.47v-8.68Z"></path><path class="cls-2" d="M344.49,125.92v1.29h-3.85v2.4h3v1.25h-3v2.45h3.85v1.29H339v-8.68Z"></path><path class="cls-2" d="M347.56,131.55v3h-1.62v-8.68h2.83a4.76,4.76,0,0,1,1.5.21,2.64,2.64,0,0,1,1.05.57,2.15,2.15,0,0,1,.62.87,3.14,3.14,0,0,1,.2,1.12,3.27,3.27,0,0,1-.21,1.15,2.65,2.65,0,0,1-.63.91,3,3,0,0,1-1.06.59,4.65,4.65,0,0,1-1.47.21Zm0-1.26h1.21a2.55,2.55,0,0,0,.77-.11,1.73,1.73,0,0,0,.55-.32,1.34,1.34,0,0,0,.32-.51,2,2,0,0,0,.11-.66,1.81,1.81,0,0,0-.11-.63,1.23,1.23,0,0,0-.32-.48,1.53,1.53,0,0,0-.55-.3,2.55,2.55,0,0,0-.77-.11h-1.21Z"></path><path class="cls-2" d="M324.79,147.67h3.48V149h-5.09v-8.68h1.61Z"></path><path class="cls-2" d="M334.85,140.32v1.29H331V144h3v1.25h-3v2.45h3.84V149h-5.47v-8.68Z"></path><path class="cls-2" d="M343.88,149h-1.25a.48.48,0,0,1-.34-.11.52.52,0,0,1-.2-.26l-.65-1.77h-3.59l-.65,1.77a.52.52,0,0,1-.19.26.55.55,0,0,1-.34.11h-1.26l3.41-8.68h1.65Zm-5.62-3.28H341L340,142.84c0-.13-.1-.28-.16-.46l-.17-.56c-.05.2-.11.39-.16.57s-.11.33-.16.46Z"></path><path class="cls-2" d="M346.44,145.61V149h-1.61v-8.68h2.64a5.21,5.21,0,0,1,1.52.19,2.81,2.81,0,0,1,1,.51,2,2,0,0,1,.6.79,2.75,2.75,0,0,1,.18,1,2.82,2.82,0,0,1-.12.83,2.41,2.41,0,0,1-1,1.26,3,3,0,0,1-.81.39,1.57,1.57,0,0,1,.53.5l2.17,3.2h-1.45a.8.8,0,0,1-.36-.08.82.82,0,0,1-.25-.24l-1.82-2.78a.53.53,0,0,0-.23-.22.7.7,0,0,0-.36-.07Zm0-1.16h1a2.64,2.64,0,0,0,.79-.11,1.45,1.45,0,0,0,.56-.32,1.18,1.18,0,0,0,.33-.47,1.74,1.74,0,0,0,.11-.61,1.22,1.22,0,0,0-.44-1,2.05,2.05,0,0,0-1.33-.36h-1Z"></path><path class="cls-2" d="M353.66,140.33l.13,0a.38.38,0,0,1,.11.08l.12.13,4.55,5.8,0-.41c0-.13,0-.26,0-.37v-5.28H360V149h-.83a.76.76,0,0,1-.32-.06.69.69,0,0,1-.24-.22L354,143l0,.38c0,.12,0,.24,0,.34V149h-1.43v-8.68h1Z"></path><path class="cls-2" d="M363.52,149H361.9v-8.68h1.62Z"></path><path class="cls-2" d="M366.5,140.33l.13,0a.38.38,0,0,1,.11.08l.12.13,4.55,5.8,0-.41c0-.13,0-.26,0-.37v-5.28h1.42V149H372a.73.73,0,0,1-.32-.06.71.71,0,0,1-.25-.22L366.86,143l0,.38V149h-1.42v-8.68h1Z"></path><path class="cls-2" d="M378.53,147.81a3.85,3.85,0,0,0,1-.1,3.35,3.35,0,0,0,.77-.27v-1.58h-1.09a.36.36,0,0,1-.24-.08.29.29,0,0,1-.09-.22v-.91h2.88v3.51a4.79,4.79,0,0,1-.68.42,4.6,4.6,0,0,1-.76.29,7.06,7.06,0,0,1-.87.17,7.79,7.79,0,0,1-1,.06,4.49,4.49,0,0,1-1.74-.33,4,4,0,0,1-1.38-.92,4.13,4.13,0,0,1-.91-1.41,4.66,4.66,0,0,1-.33-1.78,4.91,4.91,0,0,1,.32-1.79,3.91,3.91,0,0,1,2.32-2.32,5.28,5.28,0,0,1,1.87-.32,4.89,4.89,0,0,1,1.84.31,4.35,4.35,0,0,1,1.32.82l-.47.73a.42.42,0,0,1-.37.23.59.59,0,0,1-.29-.1l-.39-.23a3.79,3.79,0,0,0-.45-.2,3.57,3.57,0,0,0-.54-.13,3.65,3.65,0,0,0-.7-.06,2.86,2.86,0,0,0-1.16.22,2.42,2.42,0,0,0-.89.62,2.76,2.76,0,0,0-.56,1,3.87,3.87,0,0,0-.2,1.26,4,4,0,0,0,.21,1.34,2.73,2.73,0,0,0,.59,1,2.46,2.46,0,0,0,.9.62A3,3,0,0,0,378.53,147.81Z"></path><text class="cls-3" transform="translate(20.65 69.62)">Early artificial intelligence <tspan x="0" y="10.8">stirs </tspan><tspan class="cls-4" x="18.84" y="10.8">ex</tspan><tspan x="27.55" y="10.8">citement.</tspan></text><text class="cls-5" transform="translate(7.36 273.84)">1950s</text><text class="cls-5" transform="translate(54.26 273.84)">1960s</text><text class="cls-5" transform="translate(102.48 273.84)">1970s</text><text class="cls-5" transform="translate(148.72 273.84)">1980s</text><text class="cls-5" transform="translate(196.94 273.84)">1990s</text><text class="cls-5" transform="translate(243.84 273.84)">2000s</text><text class="cls-5" transform="translate(292.06 273.84)">2010s</text><text class="cls-3" transform="translate(181.82 119.16)">Machine learning begins <tspan x="0" y="10.8">to flourish.</tspan></text><text class="cls-3" transform="translate(322.2 165.08)">Deep learning breakthroughs <tspan x="0" y="10.8">dri</tspan><tspan class="cls-6" x="10.96" y="10.8">v</tspan><tspan x="15.45" y="10.8">e AI boom.</tspan></text><path class="cls-2" d="M20.48,260.1a.5.5,0,0,1-.5-.5V239.78a.5.5,0,0,1,.5-.5.5.5,0,0,1,.5.5V259.6A.51.51,0,0,1,20.48,260.1Z"></path><path class="cls-2" d="M257.17,260.1a.51.51,0,0,1-.5-.5V239.78a.5.5,0,0,1,.5-.5.5.5,0,0,1,.5.5V259.6A.5.5,0,0,1,257.17,260.1Z"></path><path class="cls-2" d="M209.83,260.1a.51.51,0,0,1-.5-.5V239.78a.5.5,0,0,1,.5-.5.5.5,0,0,1,.5.5V259.6A.5.5,0,0,1,209.83,260.1Z"></path><path class="cls-2" d="M162.5,260.1a.5.5,0,0,1-.5-.5V239.78a.5.5,0,0,1,.5-.5.5.5,0,0,1,.5.5V259.6A.51.51,0,0,1,162.5,260.1Z"></path><path class="cls-2" d="M351.85,260.1a.51.51,0,0,1-.5-.5V239.78a.5.5,0,0,1,.5-.5.5.5,0,0,1,.5.5V259.6A.5.5,0,0,1,351.85,260.1Z"></path><path class="cls-2" d="M304.51,260.1a.51.51,0,0,1-.5-.5V239.78a.5.5,0,0,1,.5-.5.5.5,0,0,1,.5.5V259.6A.5.5,0,0,1,304.51,260.1Z"></path><path class="cls-2" d="M399.19,260.1a.51.51,0,0,1-.5-.5V239.78a.5.5,0,0,1,.5-.5.5.5,0,0,1,.5.5V259.6A.5.5,0,0,1,399.19,260.1Z"></path><path class="cls-2" d="M115.16,260.1a.5.5,0,0,1-.5-.5V239.78a.5.5,0,0,1,.5-.5.5.5,0,0,1,.5.5V259.6A.51.51,0,0,1,115.16,260.1Z"></path><path class="cls-2" d="M67.82,260.1a.5.5,0,0,1-.5-.5V239.78a.5.5,0,0,1,.5-.5.5.5,0,0,1,.5.5V259.6A.51.51,0,0,1,67.82,260.1Z"></path><path class="cls-2" d="M446.53,260.1a.51.51,0,0,1-.5-.5V239.78a.5.5,0,0,1,.5-.5.5.5,0,0,1,.5.5V259.6A.5.5,0,0,1,446.53,260.1Z"></path><path class="cls-2" d="M64.66,113l-3.34-6.78v-.11c.16-3.91-.79-6.95-2.8-9s-5-3.14-8.88-3.14h-5a.72.72,0,0,0-.72.72v6.19a3.56,3.56,0,1,0-1.34,6.85,3.64,3.64,0,0,0,1.35-.26v4a.7.7,0,0,0,.45.66.71.71,0,0,0,.78-.17,2.1,2.1,0,0,1,1.54-.67,2.15,2.15,0,0,1,1.51.63,2.1,2.1,0,0,1,.62,1.5,2.12,2.12,0,0,1-2.13,2.13,2.09,2.09,0,0,1-1.54-.66.71.71,0,0,0-1.23.49v8.62H37.15v-3.7a.71.71,0,0,0-.71-.71H29.9a.69.69,0,0,1-.69-.69v-5.48a.71.71,0,0,0-.71-.72H26.31l2.91-5.91a.67.67,0,0,0,.07-.31c0-.08,0-.19,0-.33-.05-1.3-.21-5.28,2.41-8,1.72-1.79,4.36-2.7,7.85-2.7h2.3V93.91h-2.3c-3.89,0-6.88,1.06-8.88,3.14s-3,5.14-2.8,9v.11L24.52,113a.73.73,0,0,0,0,.7.71.71,0,0,0,.61.33h2.63v4.77a2.11,2.11,0,0,0,2.11,2.12h5.82v3.7a.71.71,0,0,0,.72.71h8.15a.71.71,0,0,0,.71-.71v-8a3.64,3.64,0,0,0,1.35.26,3.55,3.55,0,0,0,3.56-3.56,3.52,3.52,0,0,0-1-2.51,3.57,3.57,0,0,0-2.52-1,3.64,3.64,0,0,0-1.35.26v-4a.7.7,0,0,0-.45-.66.71.71,0,0,0-.78.17,2.1,2.1,0,0,1-1.54.67,2.13,2.13,0,0,1,0-4.26,2.09,2.09,0,0,1,1.54.66.71.71,0,0,0,.78.18.73.73,0,0,0,.45-.67V95.34h4.34c3.48,0,6.13.91,7.85,2.7,2.61,2.72,2.46,6.7,2.4,8,0,.14,0,.25,0,.33a.68.68,0,0,0,.08.31l2.91,5.91H60.68a.72.72,0,0,0-.72.72v5.48a.68.68,0,0,1-.68.69H52.74a.71.71,0,0,0-.71.71v3.7H47.44v1.43h5.3a.71.71,0,0,0,.72-.71v-3.7h5.82a2.12,2.12,0,0,0,2.11-2.12V114H64a.71.71,0,0,0,.61-.33A.73.73,0,0,0,64.66,113Z"></path><path class="cls-2" d="M336.88,211.33a3.23,3.23,0,0,0,3.23-3.23.64.64,0,1,0-1.28,0,1.95,1.95,0,1,1-1.95-1.95.64.64,0,1,0,0-1.28,3.23,3.23,0,1,0,0,6.46Z"></path><path class="cls-2" d="M336.88,202c-8,0-14.36,7.51-14.63,7.83a.65.65,0,0,0,0,.8c.27.34,6.62,8.24,14.64,8.24s14.36-7.7,14.63-8a.63.63,0,0,0,0-.8C351.24,209.71,344.9,202,336.88,202Zm3.82,1.91a5.88,5.88,0,0,1,1.8,4.19,5.62,5.62,0,1,1-9.29-4.25,12.8,12.8,0,0,1,3.67-.57A12.53,12.53,0,0,1,340.7,203.91Zm-3.82,13.69c-6.41,0-11.89-5.75-13.29-7.35a25.81,25.81,0,0,1,7.26-5.48,6.89,6.89,0,1,0,12.92,3.33,7.12,7.12,0,0,0-.81-3.26,26.08,26.08,0,0,1,7.21,5.6C348.76,212,343.29,217.6,336.88,217.6Z"></path><path class="cls-2" d="M351.75,198.74l-3.56-.58a11.67,11.67,0,0,0-.95-2.32l2.09-2.94a.64.64,0,0,0-.07-.82l-3-3a.64.64,0,0,0-.82-.07l-2.94,2.09a12.07,12.07,0,0,0-2.32-1l-.58-3.55a.64.64,0,0,0-.63-.53h-4.22a.63.63,0,0,0-.63.53l-.58,3.56a11.12,11.12,0,0,0-2.31,1L328.3,189a.64.64,0,0,0-.82.07l-3,3a.64.64,0,0,0-.07.82l2.09,2.94a11.85,11.85,0,0,0-.95,2.3l-3.56.6a.64.64,0,0,0-.53.63v4.22a.63.63,0,0,0,.52.62l3.16.57h.11a.65.65,0,0,0,.63-.53.64.64,0,0,0-.52-.74l-2.63-.47v-3.14l3.43-.58a.63.63,0,0,0,.51-.47,10.71,10.71,0,0,1,1.13-2.73.62.62,0,0,0,0-.69l-2-2.84,2.22-2.22,2.84,2a.64.64,0,0,0,.69,0,10.84,10.84,0,0,1,2.75-1.13.62.62,0,0,0,.47-.51l.56-3.43h3.13l.57,3.43a.62.62,0,0,0,.47.51,10.84,10.84,0,0,1,2.75,1.13.64.64,0,0,0,.69,0l2.84-2L348,192.6l-2,2.84a.64.64,0,0,0,0,.69,10.84,10.84,0,0,1,1.13,2.75.62.62,0,0,0,.51.47l3.43.56V203l-2.82.47a.64.64,0,0,0,.2,1.26l3.36-.55a.64.64,0,0,0,.53-.63v-4.22A.63.63,0,0,0,351.75,198.74Z"></path><path class="cls-2" d="M330.53,201.37a6.35,6.35,0,1,1,12.7,0,.64.64,0,0,0,1.28,0,7.63,7.63,0,0,0-15.26,0,.64.64,0,0,0,1.28,0Z"></path><path class="cls-2" d="M196.62,161.45h0a.65.65,0,0,1-.5-.27l-2.77-3.82a.65.65,0,0,1,.15-.9.64.64,0,0,1,.9.14l2.28,3.16,4.56-5.45a.64.64,0,1,1,1,.82l-5.09,6.09A.62.62,0,0,1,196.62,161.45Z"></path><path class="cls-2" d="M200.14,173.53h-4.41a.65.65,0,0,1-.64-.53l-.63-3.75a11.31,11.31,0,0,1-2.44-1L189,170.45a.65.65,0,0,1-.83-.07L185,167.26a.65.65,0,0,1-.07-.83l2.21-3.07a11.88,11.88,0,0,1-1-2.44l-3.74-.64a.63.63,0,0,1-.53-.63v-4.41a.63.63,0,0,1,.53-.63l3.74-.64a12.73,12.73,0,0,1,1.21-2.78.64.64,0,1,1,1.11.65,11.21,11.21,0,0,0-1.18,2.86.63.63,0,0,1-.52.47l-3.6.62v3.32l3.6.61a.64.64,0,0,1,.52.48,11,11,0,0,0,1.19,2.87.65.65,0,0,1,0,.71l-2.13,3,2.34,2.34,3-2.13a.67.67,0,0,1,.71,0,10.65,10.65,0,0,0,2.87,1.2.63.63,0,0,1,.48.52l.61,3.6h3.32l.62-3.6a.63.63,0,0,1,.47-.52,10.84,10.84,0,0,0,2.88-1.2.66.66,0,0,1,.7,0l3,2.13,2.34-2.34-2.13-3a.65.65,0,0,1,0-.71,10.84,10.84,0,0,0,1.2-2.9.67.67,0,0,1,.52-.48l3.6-.59v-3.31l-3.6-.59a.66.66,0,0,1-.52-.48,11.16,11.16,0,0,0-1.19-2.88.66.66,0,0,1,0-.7l2.12-3-2.35-2.35-3,2.12a.64.64,0,0,1-.7,0,11,11,0,0,0-2.88-1.19.64.64,0,0,1-.48-.52l-.59-3.6h-3.3l-.2,1.3a.64.64,0,0,1-1.27-.19l.27-1.85a.65.65,0,0,1,.64-.55h4.41a.64.64,0,0,1,.63.54l.61,3.73a12.51,12.51,0,0,1,2.45,1l3.09-2.19a.63.63,0,0,1,.83.07l3.11,3.11a.63.63,0,0,1,.07.83l-2.19,3.09a12.77,12.77,0,0,1,1,2.45l3.73.61a.64.64,0,0,1,.54.63v4.41a.65.65,0,0,1-.54.64l-3.73.61a12,12,0,0,1-1,2.46l2.2,3.07a.63.63,0,0,1-.07.83l-3.11,3.12a.65.65,0,0,1-.83.07l-3.07-2.21a12.11,12.11,0,0,1-2.44,1l-.64,3.74A.63.63,0,0,1,200.14,173.53Z"></path><path class="cls-2" d="M186.5,150.2a.66.66,0,0,1-.52-.27l-1-1.47a.65.65,0,0,1,.07-.83l3.12-3.11a.63.63,0,0,1,.82-.07l3.1,2.19a12.34,12.34,0,0,1,2.85-1.12.65.65,0,0,1,.32,1.25,10.87,10.87,0,0,0-2.88,1.19.64.64,0,0,1-.7,0l-3-2.12-2.34,2.35.73,1a.64.64,0,0,1-.53,1Z"></path><path class="cls-2" d="M197.93,165.82a8.39,8.39,0,0,1-8.37-8.37,8.29,8.29,0,0,1,1.73-5.1.64.64,0,1,1,1,.78,7.11,7.11,0,1,0,2.26-1.92.64.64,0,1,1-.62-1.13,8.37,8.37,0,1,1,4,15.74Z"></path></g></g></svg> 