<svg width="600" height="301" viewBox="0 0 600 301" xmlns="http://www.w3.org/2000/svg" xmlns:xlink="http://www.w3.org/1999/xlink">
  <title>Client Server</title>
  <defs>
    <style type="text/css">
	  rect, path {
		fill: white;
        stroke-width: 1px;
		stroke: black;
	  }
	  text {
	    font-size: 20px;
		fill: white;
		stroke: white;
		text-anchor:middle;
	  }
	  
	  .heading {
	  	font-size: 36px;
		fill:black;
		font-weight: bold;
	  }
	  .black {
		fill:black;
		stroke:black;
		stroke-width: 0;
	  }	  
	  
	  rect.unit {
	    stroke: #c32e04;
		fill: #c32e04;
	  }
	  rect.container {
	    stroke: #c32e04;
		fill: #ffebe6;
	  }	  
	  rect.container2 {
	    stroke: #306f91;
		fill:  #e6f2f7;
	  }	 
	  rect.unit2 {
	    stroke: #306f91;
		fill: #306f91;
	  }
	  
 path {
	fill: black;
	stroke: #000;
	stroke-width: 3px;
}
  
	 </style> 
	<marker id="markerPfeil" markerWidth="13" markerHeight="13" >
		<path d="M0,-6 v8 l8,-4z " />
	</marker>
</defs>
  <g id="box">
    <desc>Beispiel eines Client-Server-Modells</desc> 

    <rect class="container" stroke="#c32e04" fill="#ffebe6" x="10" y="20" rx="10" ry="10" height="200" width="180"/>
    <rect class="unit" stroke="#c32e04" fill="#ffebe6" x="30" y="100" rx="5" ry="5" height="40" width="140"/>	
	<text x="100" y="125">Browser</text>	
	<text x="100" y="260" class="heading">Client</text>		

	<g transform="translate(380,0)">
    <rect class="container2" stroke="#c32e04" fill="#ffebe6" x="20" y="20" rx="10" ry="10" height="200" width="180"/>
    <rect class="unit2" stroke="#c32e04" fill="#ffebe6" x="40" y="40" rx="5" ry="5" height="40" width="140"/>	
	<text x="110" y="65">Apache</text>		
    <rect class="unit2" stroke="#c32e04" fill="#ffebe6" x="40" y="100" rx="5" ry="5" height="40" width="140"/>	
	<text x="110" y="125">PHP</text>		
    <rect class="unit2" stroke="#c32e04" fill="#ffebe6" x="40" y="160" rx="5" ry="5" height="40" width="140"/>	
	<text x="110" y="185">Datenbanken</text>
	<text x="110" y="260" class="heading">Server</text>					
	</g>
	<path d="M200,50 h180 v5 l5-5 l-5-5 v5"  />
	<text x="300" y="80" class="black">Anfrage</text>	
	<path d="M380,180 h-180 v5 l-5-5 l5-5 v5 " />
	<text x="300" y="210" class="black">Antwort</text>		

  </g>	
</svg>