<?xml version="1.0" encoding="utf-8"?>
<!-- Generator: Adobe Illustrator 16.0.3, SVG Export Plug-In . SVG Version: 6.00 Build 0)  -->
<!DOCTYPE svg PUBLIC "-//W3C//DTD SVG 1.1//EN" "http://www.w3.org/Graphics/SVG/1.1/DTD/svg11.dtd">
<svg version="1.1" id="Ebene_1" xmlns="http://www.w3.org/2000/svg" xmlns:xlink="http://www.w3.org/1999/xlink" x="0px" y="0px"
	 width="894.666px" height="407.232px" viewBox="0 0 894.666 407.232" enable-background="new 0 0 894.666 407.232"
	 xml:space="preserve">
<path fill="#F39700" d="M353.854,54.322c14.312-10.027,31.719-16.198,50.673-16.198c4.642,0,8.896,0.386,13.152,1.157l-5.802,27.379
	c-2.708-0.385-5.029-0.385-7.737-0.385c-12.378,0-23.983,3.856-33.266,10.412L353.854,54.322z M371.647,172.714
	c9.285,6.169,20.889,10.026,32.88,10.026c2.707,0,5.415-0.386,8.122-0.386l5.802,27.38c-4.643,0.771-9.283,1.157-13.925,1.157
	c-18.568,0-35.975-5.785-49.9-15.81L371.647,172.714z M346.891,188.525c-16.633-14.655-27.463-35.865-28.624-59.389l27.85-0.386
	c1.16,15.04,8.123,28.537,18.567,38.178L346.891,188.525z M318.268,119.109c1.16-23.138,11.99-43.962,28.237-59.003l17.792,21.596
	c-10.057,9.641-17.02,23.138-18.18,37.792L318.268,119.109L318.268,119.109z M428.121,41.21
	c23.21,6.555,42.552,22.368,53.382,43.191l-24.371,12.727c-7.35-13.884-20.114-24.296-35.2-28.923L428.121,41.21z M484.599,157.674
	c-10.059,23.91-30.559,42.034-55.703,49.362l-6.575-26.996c12.377-3.855,23.208-11.954,30.557-22.367H484.599z"/>
<path fill="#3C3C3B" d="M411.103,173.871l-5.415-25.066h-1.16c-4.255,0-8.51-1.157-11.993-3.086l-15.859,20.439
	c8.123,5.398,17.407,8.483,27.852,8.483C406.848,174.256,408.782,174.256,411.103,173.871 M369.713,160.373l16.246-20.053
	c-3.095-3.472-5.029-7.713-5.801-12.341l-25.53,0.771C355.401,141.09,361.202,152.274,369.713,160.373 M354.627,119.881
	l25.917,0.387c0.774-4.628,2.707-8.87,5.802-11.956l-16.632-19.668C361.202,96.357,355.401,107.54,354.627,119.881 M451.716,141.09
	h-29.395c-2.322,2.7-5.416,4.628-8.511,5.786l6.189,25.066C434.698,167.314,446.69,155.745,451.716,141.09 M488.853,80.931
	l24.756-13.111c-15.859-30.08-43.322-52.833-76.976-61.702l-6.575,26.995C455.585,40.44,476.86,57.793,488.853,80.931
	 M404.527,29.641c5.028,0,10.057,0.387,15.085,1.157l5.803-27.379c-6.578-1.157-13.54-1.543-20.503-1.543
	c-27.85,0-52.993,8.869-73.495,23.91l17.408,21.98C364.297,36.197,383.639,29.641,404.527,29.641 M426.187,112.94l22.824-11.956
	c-6.19-11.569-16.633-20.438-29.399-24.68l-6.189,25.067C419.226,103.684,423.48,107.926,426.187,112.94 M404.527,99.828h0.773
	l5.029-25.452c-1.935-0.386-3.867-0.386-5.801-0.386c-10.444,0-20.115,3.086-28.238,8.485l15.859,20.438
	C396.017,100.985,399.884,99.828,404.527,99.828 M655.567,30.413c0-3.085-1.158-5.013-3.867-6.17
	c-1.547-0.771-3.48-0.771-6.574-0.771h-8.512v24.681h4.256V38.125h3.48c2.322,0,3.869,0.386,4.643,0.771
	c1.549,0.772,2.322,2.7,2.322,5.786v3.083l3.869-0.385c0-0.385,0-0.772-0.389-1.157v-3.857c0-1.157-0.387-2.699-1.162-3.855
	c-0.771-1.157-2.32-1.929-4.254-2.315c1.547-0.385,2.709-0.771,3.482-1.157C654.796,34.27,655.567,32.341,655.567,30.413
	 M648.993,34.655c-0.773,0.385-2.32,0.385-4.254,0.385h-3.867v-8.869h3.867c2.32,0,4.254,0.385,5.416,0.772
	c1.16,0.77,1.547,1.929,1.547,3.47C651.313,32.727,650.54,33.883,648.993,34.655 M549.97,235.958h44.482V13.445H549.97V235.958
	L549.97,235.958z M661.372,19.615c-4.254-4.242-9.672-6.556-15.859-6.556c-6.189,0-11.605,2.314-15.861,6.556
	c-4.254,4.242-6.574,9.641-6.574,15.811c0,6.17,2.32,11.569,6.574,15.812c4.256,4.242,9.672,6.556,15.861,6.556
	c6.188,0,11.605-2.314,15.859-6.556c4.254-4.241,6.576-9.641,6.576-15.812C667.948,29.256,665.626,24.243,661.372,19.615
	 M659.05,49.309c-3.867,3.856-8.123,5.784-13.537,5.784c-5.416,0-10.057-1.928-13.539-5.784c-3.867-3.856-5.414-8.484-5.414-13.883
	s1.934-10.027,5.801-13.498c3.869-3.857,8.125-5.785,13.539-5.785c5.416,0,10.057,1.929,13.539,5.785
	c3.867,3.856,5.801,8.484,5.801,13.498C664.853,40.825,662.919,45.452,659.05,49.309 M430.83,215.134l6.575,26.995
	c35.201-9.642,64.211-35.094,79.297-67.873H485.37C472.991,193.924,453.651,208.578,430.83,215.134 M309.757,129.521l-27.852,0.386
	c1.549,34.707,17.408,65.558,42.163,86.77l17.794-21.596C322.908,178.883,310.917,155.36,309.757,129.521 M125.632,99.828
	L42.467,13.446H2.625v222.512h44.483V81.317l78.137,82.912l78.523-82.912v154.641h44.483V13.445H208.41L125.632,99.828
	L125.632,99.828z M404.527,218.991c-20.502,0-39.456-6.559-54.927-17.354l-17.021,21.982c20.114,14.652,45.258,23.138,71.949,23.138
	c7.35,0,14.699-0.772,21.66-1.928l-5.801-27.382C414.971,218.604,409.942,218.991,404.527,218.991 M341.089,53.936l-17.792-21.21
	c-23.983,21.21-39.843,52.062-41.391,85.997l27.852,0.385C311.304,93.271,322.908,70.134,341.089,53.936"/>
<g>
	<path fill="#3C3C3B" d="M858.093,326.333h31.197v-8.979h-21.449v-8.972h19.195v-8.976h-19.195v-8.225h20.316v-8.972h-30.064
		V326.333z M805.274,326.333h9.746v-19.069h18.943v19.069h9.756V282.21h-9.756v16.455h-18.943V282.21h-9.746V326.333z
		 M793.899,287.563c-3.76-4.792-10.008-6.486-14.941-6.486c-13.814,0-23.875,9.041-23.875,23.192
		c0,14.146,10.061,23.191,23.875,23.191c6.061,0,12.318-2.436,15.998-7.676l-8.121-6.054c-1.994,3.007-5.186,4.745-9.131,4.745
		c-7.063,0-12.504-5.982-12.504-14.207c0-8.22,5.441-14.207,12.816-14.207c3.633,0,6.436,1.309,8.373,3.611L793.899,287.563z
		 M745.138,285.7c-3.752-3.301-8.563-4.623-13.564-4.623c-8.691,0-16.875,4.93-16.875,14.34c0,14.707,20.748,10.354,20.748,18.446
		c0,3.126-3.564,4.613-6.752,4.613c-3.248,0-6.498-1.553-8.496-4.174l-6.951,7.611c4.205,3.852,9.195,5.546,14.889,5.546
		c9.125,0,17.059-4.678,17.059-14.531c0-15.449-20.373-10.273-20.373-18.314c0-3.311,3.811-4.552,6.563-4.552
		c2.377,0,5.494,0.935,7.066,2.938L745.138,285.7z M692.942,326.333h9.742V282.21h-9.742V326.333z M657.304,290.43h6.385
		c3.557,0,7.564,0.689,7.564,5.113c0,4.794-4.633,4.92-8.199,4.92h-5.75V290.43z M647.562,326.333h9.742v-17.64h4.816l9.244,17.64
		h11.699l-11.254-18.641c6.258-1.114,9.563-5.915,9.563-12.082c0-10.288-7.625-13.401-16.684-13.401h-17.127V326.333z
		 M603.546,326.333h31.197v-8.979h-21.445v-8.972h19.195v-8.976h-19.195v-8.225h20.316v-8.972h-30.068V326.333z M539.167,326.333
		h9.746v-33.844h0.129l11.18,33.844h7.455l11.613-33.844h0.137v33.844h9.742V282.21h-14.691l-10.248,28.789h-0.133l-10.178-28.789
		h-14.754v44.123H539.167z M486.716,326.333h9.752v-19.069h18.943v19.069h9.746V282.21h-9.746v16.455h-18.943V282.21h-9.752V326.333
		z M442.717,326.333h31.185v-8.979h-21.439v-8.972h19.186v-8.976h-19.186v-8.225h20.322v-8.972h-30.067V326.333L442.717,326.333z
		 M386.382,326.333h9.755v-31.412h0.127l19.315,31.412h12.756V282.21h-9.756v30.657h-0.129l-18.815-30.657h-13.253V326.333z
		 M350.636,290.43h6.37c3.563,0,7.563,0.689,7.563,5.113c0,4.794-4.623,4.92-8.191,4.92h-5.742L350.636,290.43L350.636,290.43z
		 M340.872,326.333h9.764v-17.64h4.811l9.245,17.64h11.686l-11.241-18.641c6.254-1.114,9.56-5.915,9.56-12.082
		c0-10.288-7.629-13.401-16.694-13.401h-17.13V326.333L340.872,326.333z M296.873,326.333h31.189v-8.979h-21.444v-8.972h19.195
		v-8.976h-19.195v-8.225h20.316v-8.972h-30.062L296.873,326.333L296.873,326.333z M264.177,326.333h9.75v-35.529h12.626v-8.594
		h-35.005v8.594h12.627L264.177,326.333L264.177,326.333z M199.663,326.333h9.745v-31.412h0.131l19.323,31.412h12.743V282.21h-9.753
		v30.657h-0.12l-18.813-30.657h-13.258v44.123H199.663z M185.663,282.209h-9.754v26.735c0,5.414-3.744,9.531-8.872,9.531
		c-5.193,0-8.946-4.117-8.946-9.531v-26.735h-9.753v27.107c0,10.411,6.383,18.144,18.699,18.144
		c12.244,0,18.625-7.732,18.625-18.144L185.663,282.209L185.663,282.209z M78.956,326.333h31.192v-8.979H88.705v-8.972H107.9v-8.976
		H88.705v-8.225h20.326v-8.972H78.956V326.333z M54.954,326.333h9.75V282.21h-9.75V326.333z M12.385,291.181h5.747
		c8.249,0,15.188,4.052,15.188,12.72c0,10.028-6.808,13.452-15.878,13.452h-5.057V291.181z M2.625,326.333h15.948
		c13.191,0,24.877-7.668,24.877-21.932c0-16.147-11.941-22.191-26.199-22.191H2.625V326.333z"/>
	<path fill="#3C3C3B" d="M443.774,404.237h31.188v-8.976h-21.439v-8.985h19.189v-8.966h-19.189v-8.221h20.326v-8.979h-30.074
		V404.237z M405.203,404.237h27.816v-8.976h-18.063V360.11h-9.754L405.203,404.237L405.203,404.237z M390.826,360.11h-9.744v26.738
		c0,5.419-3.758,9.542-8.883,9.542c-5.19,0-8.946-4.123-8.946-9.542V360.11h-9.747v27.107c0,10.405,6.373,18.139,18.693,18.139
		c12.253,0,18.627-7.733,18.627-18.139V360.11z M301.057,404.237h9.753v-19.08h18.94v19.08h9.746V360.11h-9.746v16.445h-18.94
		V360.11h-9.753V404.237L301.057,404.237z M289.685,365.469c-3.757-4.796-10.005-6.478-14.943-6.478
		c-13.812,0-23.882,9.022-23.882,23.187c0,14.143,10.071,23.179,23.882,23.179c6.063,0,12.31-2.437,16-7.663l-8.119-6.048
		c-2.009,2.988-5.19,4.744-9.13,4.744c-7.063,0-12.504-5.995-12.504-14.212c0-8.229,5.44-14.217,12.82-14.217
		c3.625,0,6.439,1.309,8.37,3.618L289.685,365.469z M240.922,363.599c-3.747-3.305-8.565-4.608-13.563-4.608
		c-8.695,0-16.872,4.915-16.872,14.334c0,14.709,20.755,10.347,20.755,18.438c0,3.116-3.577,4.628-6.764,4.628
		c-3.243,0-6.501-1.567-8.499-4.183l-6.94,7.602c4.197,3.867,9.195,5.547,14.873,5.547c9.134,0,17.075-4.678,17.075-14.518
		c0-15.459-20.384-10.289-20.384-18.33c0-3.296,3.818-4.548,6.568-4.548c2.379,0,5.5,0.936,7.061,2.938L240.922,363.599z
		 M159.904,404.237h9.752v-19.08h18.943v19.08h9.749V360.11h-9.749v16.445h-18.943V360.11h-9.752V404.237z M148.534,365.469
		c-3.752-4.796-10.005-6.478-14.938-6.478c-13.814,0-23.877,9.022-23.877,23.187c0,14.143,10.063,23.179,23.877,23.179
		c6.058,0,12.308-2.437,15.998-7.663l-8.122-6.048c-2.004,2.988-5.19,4.744-9.13,4.744c-7.059,0-12.503-5.995-12.503-14.212
		c0-8.229,5.444-14.217,12.82-14.217c3.623,0,6.437,1.309,8.371,3.618L148.534,365.469z M62.829,382.177
		c0-8.229,5.434-14.217,13.75-14.217c8.314,0,13.753,5.987,13.753,14.217c0,8.216-5.438,14.213-13.753,14.213
		C68.263,396.39,62.829,390.394,62.829,382.177 M52.704,382.177c0,14.143,10.062,23.179,23.875,23.179
		c13.817,0,23.889-9.036,23.889-23.179c0-14.164-10.071-23.187-23.889-23.187C62.766,358.991,52.704,368.013,52.704,382.177
		 M2.625,404.237h9.76v-19.08h18.941v19.08h9.745V360.11h-9.745v16.445H12.385V360.11h-9.76V404.237z"/>
</g>
</svg>
