<?xml version="1.0" encoding="UTF-8"?>
<!-- Generator: Adobe Illustrator 15.1.0, SVG Export Plug-In . SVG Version: 6.00 Build 0)  -->
<!DOCTYPE svg PUBLIC "-//W3C//DTD SVG 1.1//EN" "http://www.w3.org/Graphics/SVG/1.1/DTD/svg11.dtd">
<svg version="1.1" id="Ebene_2" xmlns="http://www.w3.org/2000/svg" xmlns:xlink="http://www.w3.org/1999/xlink" x="0px" y="0px" width="525px" height="266.28px" viewBox="0 0 525 266.28" enable-background="new 0 0 525 266.28" xml:space="preserve">
<rect x="5" y="4.28" fill="#FFFFFF" stroke="#000000" stroke-width="2" width="516" height="258"/>
<polygon fill="#FFCC00" stroke="#020202" stroke-width="0.5" points="153.666,37.614 177.666,26.614 189.666,42.28 184.666,45.28   201.333,60.614 194.333,63.28 214.999,88.28 182,69.28 188,65.947 168.333,53.947 176,51.614 "/>
<circle fill="#FFFFFF" stroke="#000000" stroke-width="0.5" cx="81.339" cy="131.944" r="36"/>
<circle fill="#FFFFFF" stroke="#000000" stroke-width="0.5" cx="70.34" cy="120.944" r="4"/>
<circle fill="#FFFFFF" stroke="#000000" stroke-width="0.5" cx="93.34" cy="120.61" r="4"/>
<path fill="none" stroke="#000000" stroke-width="0.5" d="M62.673,146.277c0,0,18,15.333,39.333,0"/>
<circle fill="#FFFFFF" stroke="#000000" stroke-width="0.5" cx="441.006" cy="131.944" r="36"/>
<circle fill="#FFFFFF" stroke="#000000" stroke-width="0.5" cx="430.007" cy="120.944" r="4"/>
<circle fill="#FFFFFF" stroke="#000000" stroke-width="0.5" cx="453.007" cy="120.61" r="4"/>
<path fill="none" stroke="#000000" stroke-width="0.5" d="M422.341,146.277c0,0,18,15.333,39.333,0"/>
<g>
	<path d="M134.333,20.31c0.558,0.291,1.45,0.581,2.357,0.581c0.976,0,1.492-0.401,1.492-1.01c0-0.581-0.446-0.913-1.576-1.301   c-1.562-0.554-2.594-1.412-2.594-2.768c0-1.591,1.353-2.795,3.556-2.795c1.074,0,1.841,0.208,2.399,0.471l-0.474,1.688   c-0.363-0.18-1.046-0.443-1.953-0.443c-0.92,0-1.367,0.429-1.367,0.9c0,0.595,0.516,0.858,1.744,1.315   c1.659,0.609,2.426,1.467,2.426,2.782c0,1.563-1.199,2.892-3.779,2.892c-1.074,0-2.134-0.291-2.664-0.581L134.333,20.31z"/>
	<path d="M144.027,13.889v1.827h1.52v1.55h-1.52v2.45c0,0.817,0.209,1.19,0.837,1.19c0.292,0,0.432-0.014,0.627-0.056l0.014,1.592   c-0.265,0.097-0.781,0.18-1.367,0.18c-0.683,0-1.255-0.235-1.604-0.581c-0.391-0.401-0.586-1.052-0.586-2.007v-2.768h-0.906v-1.55   h0.906v-1.259L144.027,13.889z"/>
	<path d="M153.441,19.023c0,2.478-1.771,3.612-3.598,3.612c-1.995,0-3.528-1.301-3.528-3.488c0-2.2,1.45-3.598,3.654-3.598   C152.047,15.549,153.441,16.975,153.441,19.023z M147.417,13.805c0-0.553,0.446-0.969,1.004-0.969c0.53,0,0.948,0.416,0.948,0.969   c0,0.54-0.405,0.983-0.962,0.983C147.849,14.788,147.417,14.345,147.417,13.805z M148.504,19.092c0,1.163,0.488,2.034,1.395,2.034   c0.837,0,1.353-0.816,1.353-2.048c0-0.996-0.391-2.021-1.353-2.021C148.895,17.058,148.504,18.096,148.504,19.092z M151.321,14.788   c-0.543,0-0.962-0.443-0.962-0.983c0-0.553,0.418-0.969,0.99-0.969c0.544,0,0.962,0.416,0.962,0.969   c0,0.54-0.404,0.983-0.962,0.983H151.321z"/>
	<path d="M154.753,17.943c0-0.996-0.014-1.647-0.056-2.228h1.813l0.084,1.246h0.056c0.349-0.997,1.171-1.412,1.841-1.412   c0.195,0,0.293,0.014,0.446,0.042v1.979c-0.167-0.028-0.334-0.055-0.572-0.055c-0.781,0-1.311,0.415-1.451,1.065   c-0.028,0.139-0.042,0.305-0.042,0.471v3.432h-2.12V17.943z"/>
	<path d="M166.442,20.31c0,0.886,0.028,1.605,0.056,2.173h-1.841l-0.098-0.955h-0.042c-0.265,0.416-0.907,1.107-2.134,1.107   c-1.395,0-2.399-0.858-2.399-2.948v-3.972h2.12v3.64c0,0.983,0.321,1.578,1.074,1.578c0.586,0,0.935-0.401,1.06-0.733   c0.056-0.125,0.083-0.277,0.083-0.457v-4.027h2.12V20.31z"/>
	<path d="M168.145,17.875c0-0.844-0.028-1.55-0.056-2.159h1.841l0.098,0.941h0.042c0.279-0.443,0.962-1.093,2.106-1.093   c1.395,0,2.44,0.927,2.44,2.92v4h-2.12v-3.75c0-0.872-0.307-1.467-1.074-1.467c-0.585,0-0.934,0.401-1.087,0.789   c-0.056,0.138-0.07,0.332-0.07,0.526v3.903h-2.12V17.875z"/>
	<path d="M182.776,21.5c0,1.301-0.265,2.366-1.046,3.044c-0.739,0.637-1.757,0.831-2.762,0.831c-0.906,0-1.841-0.18-2.455-0.512   l0.418-1.605c0.432,0.249,1.171,0.512,1.98,0.512c1.004,0,1.771-0.526,1.771-1.785v-0.429h-0.028   c-0.404,0.554-1.06,0.872-1.841,0.872c-1.688,0-2.887-1.356-2.887-3.294c0-2.187,1.408-3.571,3.096-3.571   c0.935,0,1.521,0.401,1.869,0.969h0.028l0.07-0.816h1.841c-0.028,0.443-0.056,1.01-0.056,2.021V21.5z M180.656,18.469   c0-0.125-0.014-0.263-0.042-0.387c-0.154-0.554-0.558-0.927-1.144-0.927c-0.781,0-1.395,0.692-1.395,1.923   c0,1.011,0.502,1.799,1.381,1.799c0.558,0,0.99-0.36,1.129-0.844c0.056-0.166,0.07-0.387,0.07-0.567V18.469z"/>
</g>
<g>
	<path d="M61.244,67.239l5.191-6.961v-0.039h-4.746v-0.929h6.332v0.674l-5.177,6.936v0.038h5.247v0.929h-6.847V67.239z"/>
	<path d="M70.056,65.012c0.028,1.514,1.071,2.138,2.31,2.138c0.876,0,1.419-0.14,1.865-0.318l0.223,0.802   c-0.432,0.178-1.183,0.395-2.254,0.395c-2.074,0-3.312-1.26-3.312-3.118s1.197-3.309,3.159-3.309c2.212,0,2.783,1.756,2.783,2.889   c0,0.229-0.014,0.395-0.042,0.522H70.056z M73.646,64.21c0.014-0.7-0.32-1.807-1.698-1.807c-1.252,0-1.781,1.031-1.879,1.807   H73.646z"/>
	<path d="M77.713,59.998c0,0.382-0.292,0.688-0.779,0.688c-0.445,0-0.738-0.306-0.738-0.688s0.306-0.7,0.765-0.7   C77.406,59.298,77.713,59.603,77.713,59.998z M76.349,67.888v-6.159h1.225v6.159H76.349z"/>
	<path d="M84.407,67.671c-0.32,0.14-1.03,0.356-1.935,0.356c-2.031,0-3.354-1.26-3.354-3.144c0-1.896,1.419-3.283,3.618-3.283   c0.724,0,1.364,0.166,1.698,0.331l-0.278,0.853c-0.292-0.14-0.751-0.292-1.419-0.292c-1.545,0-2.38,1.056-2.38,2.329   c0,1.425,1.002,2.303,2.338,2.303c0.696,0,1.155-0.152,1.503-0.292L84.407,67.671z"/>
	<path d="M85.844,58.853h1.225v3.856h0.027c0.195-0.318,0.501-0.611,0.877-0.802c0.362-0.191,0.793-0.306,1.252-0.306   c0.905,0,2.352,0.509,2.352,2.622v3.665h-1.225V64.35c0-0.993-0.404-1.82-1.559-1.82c-0.793,0-1.406,0.509-1.643,1.107   c-0.069,0.166-0.083,0.331-0.083,0.535v3.716h-1.225V58.853z"/>
	<path d="M94.252,65.012c0.028,1.514,1.071,2.138,2.31,2.138c0.876,0,1.419-0.14,1.865-0.318l0.223,0.802   c-0.432,0.178-1.183,0.395-2.254,0.395c-2.074,0-3.312-1.26-3.312-3.118s1.197-3.309,3.159-3.309c2.212,0,2.783,1.756,2.783,2.889   c0,0.229-0.014,0.395-0.042,0.522H94.252z M97.842,64.21c0.014-0.7-0.32-1.807-1.698-1.807c-1.252,0-1.781,1.031-1.879,1.807   H97.842z"/>
	<path d="M100.545,63.396c0-0.649-0.014-1.158-0.056-1.667h1.085l0.07,1.018h0.028c0.334-0.573,1.113-1.146,2.227-1.146   c0.933,0,2.38,0.509,2.38,2.622v3.665h-1.225v-3.55c0-0.993-0.404-1.82-1.559-1.82c-0.793,0-1.42,0.521-1.643,1.145   c-0.056,0.14-0.083,0.331-0.083,0.522v3.703h-1.225V63.396z"/>
	<path d="M111.11,64.044v0.814h-3.438v-0.814H111.11z"/>
	<path d="M70.39,77.003l1.322,3.449c0.223,0.572,0.403,1.082,0.543,1.591h0.042c0.153-0.509,0.348-1.019,0.571-1.591l1.308-3.449   h1.28l-2.644,6.159h-1.169l-2.561-6.159H70.39z"/>
	<path d="M82.569,80.032c0,2.278-1.74,3.271-3.354,3.271c-1.809,0-3.229-1.222-3.229-3.169c0-2.049,1.489-3.258,3.34-3.258   C81.261,76.876,82.569,78.161,82.569,80.032z M77.239,80.096c0,1.349,0.835,2.367,2.032,2.367c1.169,0,2.045-1.005,2.045-2.393   c0-1.043-0.57-2.354-2.018-2.354C77.865,77.716,77.239,78.938,77.239,80.096z"/>
	<path d="M84.117,78.925c0-0.725-0.014-1.349-0.056-1.921h1.071l0.056,1.222h0.042c0.306-0.827,1.058-1.349,1.878-1.349   c0.125,0,0.223,0.013,0.334,0.025v1.056c-0.125-0.025-0.25-0.025-0.417-0.025c-0.863,0-1.475,0.585-1.642,1.425   c-0.028,0.153-0.042,0.344-0.042,0.522v3.283h-1.225V78.925z"/>
	<path d="M88.726,78.925c0-0.725-0.014-1.349-0.056-1.921h1.071l0.056,1.222h0.042c0.306-0.827,1.058-1.349,1.878-1.349   c0.125,0,0.223,0.013,0.334,0.025v1.056c-0.125-0.025-0.25-0.025-0.417-0.025c-0.863,0-1.475,0.585-1.642,1.425   c-0.028,0.153-0.042,0.344-0.042,0.522v3.283h-1.225V78.925z"/>
	<path d="M97.939,81.687c0,0.534,0.028,1.056,0.098,1.476h-1.1l-0.097-0.776h-0.042c-0.376,0.484-1.1,0.917-2.06,0.917   c-1.364,0-2.06-0.878-2.06-1.769c0-1.489,1.447-2.303,4.049-2.291v-0.127c0-0.496-0.153-1.425-1.531-1.413   c-0.64,0-1.294,0.166-1.768,0.458l-0.278-0.75c0.557-0.318,1.378-0.535,2.227-0.535c2.06,0,2.561,1.285,2.561,2.507V81.687z    M96.757,80.02c-1.336-0.026-2.853,0.19-2.853,1.387c0,0.738,0.528,1.069,1.141,1.069c0.891,0,1.461-0.509,1.656-1.031   c0.042-0.127,0.056-0.255,0.056-0.356V80.02z"/>
	<path d="M101.338,75.527v1.476h1.754v0.853h-1.754v3.321c0,0.764,0.237,1.196,0.919,1.196c0.334,0,0.528-0.025,0.709-0.076   l0.056,0.853c-0.237,0.076-0.612,0.153-1.085,0.153c-0.57,0-1.03-0.178-1.322-0.471c-0.334-0.343-0.473-0.891-0.473-1.616v-3.359   h-1.044v-0.853h1.044v-1.146L101.338,75.527z"/>
</g>
<g>
	<path d="M416.245,66.906l5.191-6.961v-0.039h-4.746v-0.929h6.332v0.674l-5.177,6.936v0.038h5.247v0.929h-6.847V66.906z"/>
	<path d="M425.057,64.679c0.027,1.514,1.071,2.138,2.311,2.138c0.876,0,1.419-0.14,1.864-0.318l0.223,0.802   c-0.432,0.178-1.183,0.395-2.255,0.395c-2.073,0-3.312-1.26-3.312-3.118s1.196-3.309,3.159-3.309c2.213,0,2.783,1.756,2.783,2.889   c0,0.229-0.014,0.395-0.042,0.522H425.057z M428.646,63.877c0.015-0.7-0.319-1.807-1.697-1.807c-1.252,0-1.781,1.031-1.879,1.807   H428.646z"/>
	<path d="M432.714,59.665c0,0.382-0.292,0.688-0.779,0.688c-0.445,0-0.737-0.306-0.737-0.688s0.306-0.7,0.765-0.7   C432.407,58.965,432.714,59.27,432.714,59.665z M431.35,67.555v-6.159h1.225v6.159H431.35z"/>
	<path d="M439.408,67.338c-0.32,0.14-1.029,0.356-1.935,0.356c-2.031,0-3.354-1.26-3.354-3.144c0-1.896,1.419-3.283,3.618-3.283   c0.724,0,1.363,0.166,1.697,0.331l-0.277,0.853c-0.293-0.14-0.752-0.292-1.42-0.292c-1.545,0-2.38,1.056-2.38,2.329   c0,1.425,1.002,2.303,2.338,2.303c0.696,0,1.155-0.152,1.503-0.292L439.408,67.338z"/>
	<path d="M440.845,58.52h1.225v3.856h0.027c0.195-0.318,0.501-0.611,0.877-0.802c0.362-0.191,0.793-0.306,1.253-0.306   c0.904,0,2.352,0.509,2.352,2.622v3.665h-1.225v-3.538c0-0.993-0.404-1.82-1.559-1.82c-0.793,0-1.406,0.509-1.643,1.107   c-0.069,0.166-0.083,0.331-0.083,0.535v3.716h-1.225V58.52z"/>
	<path d="M449.253,64.679c0.028,1.514,1.071,2.138,2.31,2.138c0.877,0,1.42-0.14,1.865-0.318l0.223,0.802   c-0.432,0.178-1.183,0.395-2.254,0.395c-2.074,0-3.312-1.26-3.312-3.118s1.197-3.309,3.159-3.309c2.212,0,2.783,1.756,2.783,2.889   c0,0.229-0.015,0.395-0.042,0.522H449.253z M452.844,63.877c0.014-0.7-0.32-1.807-1.698-1.807c-1.253,0-1.781,1.031-1.879,1.807   H452.844z"/>
	<path d="M455.546,63.062c0-0.649-0.015-1.158-0.056-1.667h1.085l0.069,1.018h0.028c0.334-0.573,1.113-1.146,2.227-1.146   c0.933,0,2.38,0.509,2.38,2.622v3.665h-1.225v-3.55c0-0.993-0.404-1.82-1.559-1.82c-0.793,0-1.42,0.521-1.643,1.145   c-0.056,0.14-0.083,0.331-0.083,0.522v3.703h-1.225V63.062z"/>
	<path d="M466.111,63.711v0.814h-3.438v-0.814H466.111z"/>
	<path d="M425.391,76.67l1.322,3.449c0.223,0.572,0.403,1.082,0.543,1.591h0.041c0.153-0.509,0.349-1.019,0.571-1.591l1.308-3.449   h1.28l-2.644,6.159h-1.169l-2.561-6.159H425.391z"/>
	<path d="M437.57,79.699c0,2.278-1.74,3.271-3.354,3.271c-1.81,0-3.229-1.222-3.229-3.169c0-2.049,1.488-3.258,3.34-3.258   C436.262,76.543,437.57,77.828,437.57,79.699z M432.24,79.763c0,1.349,0.835,2.367,2.031,2.367c1.17,0,2.046-1.005,2.046-2.393   c0-1.043-0.57-2.354-2.018-2.354C432.866,77.383,432.24,78.604,432.24,79.763z"/>
	<path d="M439.118,78.592c0-0.725-0.015-1.349-0.056-1.921h1.071l0.056,1.222h0.042c0.306-0.827,1.058-1.349,1.878-1.349   c0.126,0,0.223,0.013,0.334,0.025v1.056c-0.125-0.025-0.25-0.025-0.417-0.025c-0.862,0-1.476,0.585-1.642,1.425   c-0.028,0.153-0.042,0.344-0.042,0.522v3.283h-1.225V78.592z"/>
	<path d="M443.727,78.592c0-0.725-0.014-1.349-0.056-1.921h1.071l0.056,1.222h0.042c0.306-0.827,1.058-1.349,1.879-1.349   c0.125,0,0.223,0.013,0.334,0.025v1.056c-0.126-0.025-0.251-0.025-0.418-0.025c-0.863,0-1.475,0.585-1.643,1.425   c-0.027,0.153-0.041,0.344-0.041,0.522v3.283h-1.225V78.592z"/>
	<path d="M452.94,81.354c0,0.534,0.028,1.056,0.098,1.476h-1.1l-0.097-0.776H451.8c-0.376,0.484-1.1,0.917-2.06,0.917   c-1.364,0-2.06-0.878-2.06-1.769c0-1.489,1.447-2.303,4.05-2.291v-0.127c0-0.496-0.153-1.425-1.531-1.413   c-0.641,0-1.294,0.166-1.768,0.458l-0.278-0.75c0.557-0.318,1.378-0.535,2.227-0.535c2.06,0,2.561,1.285,2.561,2.507V81.354z    M451.758,79.687c-1.336-0.026-2.853,0.19-2.853,1.387c0,0.738,0.528,1.069,1.141,1.069c0.891,0,1.462-0.509,1.656-1.031   c0.042-0.127,0.056-0.255,0.056-0.356V79.687z"/>
	<path d="M456.339,75.194v1.476h1.754v0.853h-1.754v3.321c0,0.764,0.237,1.196,0.919,1.196c0.334,0,0.528-0.025,0.709-0.076   l0.057,0.853c-0.237,0.076-0.613,0.153-1.086,0.153c-0.57,0-1.029-0.178-1.322-0.471c-0.334-0.343-0.473-0.891-0.473-1.616v-3.359   h-1.044V76.67h1.044v-1.146L456.339,75.194z"/>
</g>
<g>
	<path d="M65.348,188.101c0.568,0.284,1.477,0.568,2.401,0.568c0.994,0,1.52-0.393,1.52-0.988c0-0.568-0.455-0.893-1.605-1.271   c-1.591-0.542-2.642-1.381-2.642-2.707c0-1.557,1.378-2.734,3.622-2.734c1.094,0,1.875,0.203,2.444,0.46l-0.483,1.651   c-0.369-0.176-1.065-0.433-1.989-0.433c-0.938,0-1.392,0.419-1.392,0.88c0,0.582,0.526,0.839,1.776,1.285   c1.69,0.596,2.472,1.435,2.472,2.721c0,1.529-1.222,2.829-3.85,2.829c-1.094,0-2.174-0.284-2.713-0.569L65.348,188.101z"/>
	<path d="M74.642,187.573c0.057,0.853,0.952,1.258,1.96,1.258c0.739,0,1.335-0.095,1.917-0.284l0.284,1.395   c-0.71,0.284-1.577,0.42-2.514,0.42c-2.358,0-3.708-1.3-3.708-3.37c0-1.679,1.094-3.533,3.509-3.533   c2.245,0,3.097,1.665,3.097,3.303c0,0.352-0.043,0.663-0.071,0.812H74.642z M77.184,186.165c0-0.501-0.227-1.34-1.222-1.34   c-0.909,0-1.278,0.799-1.335,1.34H77.184z"/>
	<path d="M80.483,185.719c0-0.826-0.028-1.516-0.057-2.111h1.875l0.099,0.92h0.043c0.284-0.433,0.98-1.069,2.145-1.069   c1.42,0,2.486,0.907,2.486,2.856v3.911h-2.159v-3.668c0-0.853-0.312-1.435-1.094-1.435c-0.597,0-0.952,0.393-1.108,0.771   c-0.057,0.136-0.071,0.325-0.071,0.515v3.816h-2.159V185.719z"/>
	<path d="M95.545,180.616v7.634c0,0.744,0.028,1.529,0.057,1.976h-1.918l-0.085-0.961h-0.042c-0.426,0.73-1.278,1.109-2.173,1.109   c-1.648,0-2.969-1.34-2.969-3.396c-0.014-2.233,1.449-3.533,3.111-3.533c0.866,0,1.52,0.298,1.833,0.745h0.028v-3.573H95.545z    M93.386,186.409c0-0.108,0-0.258-0.028-0.379c-0.128-0.542-0.597-1.002-1.265-1.002c-0.994,0-1.491,0.839-1.491,1.881   c0,1.124,0.582,1.827,1.477,1.827c0.625,0,1.137-0.405,1.265-0.987c0.028-0.149,0.042-0.312,0.042-0.474V186.409z"/>
	<path d="M98.943,187.573c0.057,0.853,0.952,1.258,1.96,1.258c0.739,0,1.335-0.095,1.917-0.284l0.284,1.395   c-0.71,0.284-1.577,0.42-2.514,0.42c-2.358,0-3.708-1.3-3.708-3.37c0-1.679,1.094-3.533,3.509-3.533   c2.245,0,3.097,1.665,3.097,3.303c0,0.352-0.043,0.663-0.071,0.812H98.943z M101.486,186.165c0-0.501-0.227-1.34-1.222-1.34   c-0.909,0-1.278,0.799-1.335,1.34H101.486z"/>
	<path d="M104.785,185.786c0-0.975-0.014-1.61-0.057-2.179h1.847l0.085,1.218h0.057c0.355-0.975,1.193-1.381,1.875-1.381   c0.199,0,0.298,0.014,0.455,0.041v1.936c-0.17-0.027-0.341-0.055-0.583-0.055c-0.795,0-1.335,0.406-1.478,1.043   c-0.028,0.135-0.042,0.298-0.042,0.46v3.356h-2.159V185.786z"/>
</g>
<g>
	<path d="M417.128,185.874h-3.429v2.215h3.83v1.729h-5.932v-9.328h5.737v1.73h-3.636v1.938h3.429V185.874z"/>
	<path d="M418.896,185.21c0-0.845-0.028-1.55-0.056-2.159h1.783l0.083,0.913h0.041c0.291-0.442,0.899-1.079,2.047-1.079   c0.885,0,1.562,0.457,1.853,1.162h0.027c0.263-0.359,0.553-0.637,0.885-0.83c0.373-0.208,0.788-0.332,1.285-0.332   c1.3,0,2.281,0.913,2.281,2.948v3.985h-2.046v-3.682c0-0.982-0.318-1.55-0.995-1.55c-0.498,0-0.83,0.332-0.981,0.733   c-0.042,0.152-0.069,0.36-0.069,0.54v3.958h-2.046v-3.806c0-0.845-0.305-1.426-0.981-1.426c-0.539,0-0.857,0.415-0.981,0.747   c-0.069,0.166-0.083,0.36-0.083,0.54v3.944h-2.046V185.21z"/>
	<path d="M430.783,185.32c0-0.886-0.028-1.633-0.056-2.27h1.825l0.097,0.941h0.027c0.498-0.706,1.271-1.094,2.253-1.094   c1.479,0,2.807,1.287,2.807,3.446c0,2.463-1.562,3.626-3.069,3.626c-0.815,0-1.451-0.332-1.755-0.775h-0.028v3.363h-2.101V185.32z    M432.884,186.912c0,0.166,0.014,0.305,0.042,0.442c0.138,0.567,0.622,0.997,1.23,0.997c0.912,0,1.451-0.762,1.451-1.91   c0-1.079-0.483-1.896-1.424-1.896c-0.595,0-1.12,0.442-1.258,1.065c-0.028,0.11-0.042,0.249-0.042,0.373V186.912z"/>
	<path d="M439.297,189.818v-5.218h-0.898v-1.55h0.898v-0.263c0-0.816,0.249-1.717,0.844-2.27c0.539-0.499,1.258-0.679,1.88-0.679   c0.456,0,0.815,0.069,1.106,0.139l-0.083,1.619c-0.18-0.056-0.401-0.097-0.678-0.097c-0.691,0-0.981,0.539-0.981,1.204v0.346h1.354   v1.55h-1.341v5.218H439.297z"/>
	<path d="M449.388,188.186c0,0.637,0.027,1.259,0.11,1.633h-1.894l-0.124-0.678h-0.042c-0.442,0.539-1.134,0.83-1.936,0.83   c-1.368,0-2.184-0.996-2.184-2.076c0-1.758,1.575-2.588,3.967-2.588v-0.083c0-0.374-0.193-0.886-1.23-0.886   c-0.69,0-1.424,0.235-1.866,0.512l-0.387-1.356c0.47-0.263,1.396-0.608,2.627-0.608c2.253,0,2.958,1.328,2.958,2.934V188.186z    M444.135,181.141c0-0.554,0.442-0.969,0.995-0.969c0.525,0,0.94,0.415,0.94,0.969c0,0.54-0.401,0.982-0.954,0.982   S444.135,181.681,444.135,181.141z M447.355,186.621c-1.105,0-1.963,0.264-1.963,1.066c0,0.539,0.359,0.802,0.829,0.802   c0.512,0,0.954-0.346,1.093-0.774c0.027-0.11,0.041-0.235,0.041-0.36V186.621z M448.006,182.123c-0.54,0-0.954-0.442-0.954-0.982   c0-0.554,0.414-0.969,0.981-0.969c0.539,0,0.954,0.415,0.954,0.969c0,0.54-0.401,0.982-0.954,0.982H448.006z"/>
	<path d="M451.06,185.21c0-0.845-0.028-1.55-0.056-2.159h1.825l0.097,0.941h0.041c0.276-0.443,0.954-1.094,2.088-1.094   c1.382,0,2.419,0.928,2.419,2.92v4h-2.102v-3.751c0-0.871-0.304-1.467-1.064-1.467c-0.58,0-0.926,0.401-1.078,0.789   c-0.056,0.139-0.069,0.332-0.069,0.526v3.902h-2.101V185.21z"/>
	<path d="M465.56,188.836c0,1.301-0.263,2.366-1.037,3.045c-0.732,0.637-1.742,0.83-2.737,0.83c-0.898,0-1.824-0.18-2.433-0.512   l0.414-1.605c0.429,0.249,1.162,0.512,1.964,0.512c0.995,0,1.755-0.526,1.755-1.785v-0.43h-0.027   c-0.4,0.554-1.051,0.872-1.825,0.872c-1.672,0-2.861-1.356-2.861-3.294c0-2.187,1.396-3.57,3.069-3.57   c0.926,0,1.507,0.401,1.853,0.969h0.027l0.069-0.816h1.825c-0.028,0.442-0.056,1.011-0.056,2.021V188.836z M463.458,185.805   c0-0.124-0.014-0.263-0.041-0.388c-0.152-0.554-0.554-0.927-1.134-0.927c-0.774,0-1.383,0.691-1.383,1.924   c0,1.01,0.498,1.799,1.369,1.799c0.553,0,0.981-0.359,1.119-0.844c0.056-0.166,0.069-0.388,0.069-0.567V185.805z"/>
	<path d="M468.862,187.105c0.055,0.872,0.926,1.287,1.907,1.287c0.719,0,1.3-0.097,1.866-0.29l0.277,1.425   c-0.691,0.291-1.535,0.43-2.447,0.43c-2.295,0-3.608-1.329-3.608-3.446c0-1.716,1.064-3.612,3.415-3.612   c2.184,0,3.014,1.702,3.014,3.377c0,0.359-0.042,0.678-0.069,0.83H468.862z M471.337,185.666c0-0.512-0.222-1.37-1.189-1.37   c-0.885,0-1.244,0.817-1.299,1.37H471.337z"/>
	<path d="M474.543,185.279c0-0.997-0.015-1.647-0.056-2.229h1.797l0.083,1.245h0.056c0.346-0.996,1.161-1.411,1.824-1.411   c0.194,0,0.291,0.014,0.442,0.041v1.979c-0.165-0.027-0.331-0.056-0.566-0.056c-0.774,0-1.3,0.415-1.438,1.066   c-0.028,0.138-0.042,0.304-0.042,0.47v3.433h-2.101V185.279z"/>
</g>
<g>
	<path d="M135.925,242.718c0.684-0.115,1.688-0.202,2.831-0.202c1.395,0,2.371,0.217,3.041,0.766   c0.572,0.463,0.878,1.156,0.878,2.052c0,1.229-0.851,2.081-1.66,2.385v0.043c0.656,0.274,1.018,0.91,1.255,1.807   c0.293,1.112,0.572,2.384,0.753,2.76h-2.175c-0.14-0.289-0.376-1.069-0.642-2.269c-0.265-1.229-0.669-1.546-1.548-1.561h-0.627   v3.829h-2.106V242.718z M138.031,246.908h0.837c1.06,0,1.688-0.549,1.688-1.401c0-0.882-0.586-1.344-1.562-1.344   c-0.516,0-0.809,0.028-0.962,0.072V246.908z"/>
	<path d="M149.93,250.622c0,0.665,0.028,1.314,0.112,1.705h-1.911l-0.125-0.708h-0.042c-0.446,0.563-1.144,0.867-1.953,0.867   c-1.381,0-2.204-1.041-2.204-2.168c0-1.835,1.59-2.702,4.003-2.702v-0.087c0-0.39-0.195-0.925-1.241-0.925   c-0.697,0-1.437,0.246-1.883,0.535l-0.391-1.416c0.474-0.274,1.409-0.636,2.65-0.636c2.273,0,2.984,1.387,2.984,3.063V250.622z    M147.88,248.989c-1.116,0-1.98,0.274-1.98,1.112c0,0.563,0.362,0.839,0.836,0.839c0.516,0,0.962-0.361,1.102-0.81   c0.028-0.116,0.042-0.246,0.042-0.376V248.989z"/>
	<path d="M151.62,242.067h2.12v4.046h0.028c0.223-0.317,0.502-0.563,0.837-0.736c0.321-0.174,0.711-0.274,1.102-0.274   c1.353,0,2.385,0.968,2.385,3.106v4.118h-2.12v-3.887c0-0.925-0.307-1.561-1.102-1.561c-0.558,0-0.906,0.375-1.06,0.78   c-0.056,0.13-0.07,0.317-0.07,0.477v4.19h-2.12V242.067z"/>
	<path d="M159.796,247.516c0-0.882-0.028-1.619-0.056-2.255h1.799l0.083,0.954h0.042c0.293-0.463,0.906-1.127,2.064-1.127   c0.893,0,1.576,0.477,1.869,1.214h0.028c0.265-0.376,0.558-0.665,0.893-0.867c0.377-0.217,0.795-0.347,1.297-0.347   c1.311,0,2.301,0.953,2.301,3.077v4.162h-2.064v-3.844c0-1.026-0.321-1.618-1.004-1.618c-0.502,0-0.837,0.347-0.99,0.766   c-0.042,0.159-0.07,0.376-0.07,0.563v4.133h-2.064v-3.974c0-0.882-0.307-1.488-0.99-1.488c-0.544,0-0.865,0.434-0.99,0.78   c-0.07,0.173-0.083,0.376-0.083,0.563v4.118h-2.064V247.516z"/>
	<path d="M173.426,249.495c0.056,0.91,0.935,1.344,1.925,1.344c0.725,0,1.311-0.102,1.883-0.304l0.279,1.488   c-0.697,0.304-1.548,0.448-2.469,0.448c-2.315,0-3.64-1.388-3.64-3.598c0-1.792,1.074-3.771,3.445-3.771   c2.203,0,3.04,1.777,3.04,3.525c0,0.376-0.042,0.708-0.07,0.867H173.426z M175.922,247.992c0-0.535-0.223-1.431-1.2-1.431   c-0.893,0-1.255,0.853-1.311,1.431H175.922z"/>
	<path d="M179.16,247.516c0-0.882-0.028-1.619-0.056-2.255h1.841l0.098,0.983h0.042c0.279-0.463,0.962-1.142,2.106-1.142   c1.395,0,2.44,0.968,2.44,3.049v4.176h-2.12v-3.916c0-0.91-0.307-1.531-1.074-1.531c-0.585,0-0.934,0.419-1.087,0.823   c-0.056,0.145-0.07,0.347-0.07,0.549v4.075h-2.12V247.516z"/>
	<path d="M187.336,242.067h2.12v4.032h0.028c0.404-0.607,1.116-0.997,2.064-0.997c1.632,0,2.817,1.401,2.803,3.568   c0,2.544-1.548,3.815-3.11,3.815c-0.795,0-1.576-0.304-2.05-1.142h-0.028l-0.083,0.982h-1.799c0.028-0.463,0.056-1.315,0.056-2.109   V242.067z M189.456,249.321c0,0.145,0.014,0.274,0.042,0.391c0.139,0.578,0.627,1.04,1.241,1.04c0.906,0,1.464-0.723,1.464-1.994   c0-1.098-0.474-1.965-1.464-1.965c-0.572,0-1.102,0.448-1.241,1.084c-0.028,0.13-0.042,0.26-0.042,0.404V249.321z"/>
	<path d="M197.353,249.495c0.056,0.91,0.935,1.344,1.925,1.344c0.725,0,1.311-0.102,1.883-0.304l0.279,1.488   c-0.697,0.304-1.548,0.448-2.469,0.448c-2.315,0-3.64-1.388-3.64-3.598c0-1.792,1.074-3.771,3.445-3.771   c2.203,0,3.04,1.777,3.04,3.525c0,0.376-0.042,0.708-0.07,0.867H197.353z M199.849,247.992c0-0.535-0.223-1.431-1.2-1.431   c-0.893,0-1.255,0.853-1.311,1.431H199.849z"/>
	<path d="M209.698,242.067v8.15c0,0.794,0.028,1.633,0.056,2.109h-1.883l-0.083-1.026h-0.042c-0.418,0.78-1.255,1.186-2.134,1.186   c-1.618,0-2.915-1.431-2.915-3.627c-0.014-2.385,1.422-3.771,3.054-3.771c0.851,0,1.492,0.317,1.799,0.795h0.028v-3.815H209.698z    M207.578,248.252c0-0.115,0-0.274-0.028-0.404c-0.125-0.578-0.585-1.069-1.241-1.069c-0.976,0-1.464,0.896-1.464,2.009   c0,1.199,0.572,1.95,1.451,1.95c0.613,0,1.116-0.434,1.241-1.055c0.028-0.159,0.042-0.332,0.042-0.506V248.252z"/>
	<path d="M213.592,243.296c0,0.606-0.433,1.099-1.144,1.099c-0.669,0-1.102-0.492-1.102-1.099c0-0.621,0.446-1.099,1.13-1.099   C213.16,242.197,213.578,242.675,213.592,243.296z M211.402,252.327v-7.066h2.12v7.066H211.402z"/>
	<path d="M215.225,247.516c0-0.882-0.028-1.619-0.056-2.255h1.841l0.098,0.983h0.042c0.279-0.463,0.962-1.142,2.106-1.142   c1.395,0,2.44,0.968,2.44,3.049v4.176h-2.12v-3.916c0-0.91-0.307-1.531-1.074-1.531c-0.585,0-0.934,0.419-1.087,0.823   c-0.056,0.145-0.07,0.347-0.07,0.549v4.075h-2.12V247.516z"/>
	<path d="M229.858,251.301c0,1.358-0.265,2.472-1.046,3.18c-0.739,0.664-1.757,0.867-2.762,0.867c-0.906,0-1.841-0.188-2.455-0.535   l0.418-1.676c0.432,0.26,1.171,0.534,1.98,0.534c1.004,0,1.771-0.549,1.771-1.864v-0.447h-0.028c-0.404,0.577-1.06,0.91-1.841,0.91   c-1.688,0-2.887-1.416-2.887-3.439c0-2.283,1.408-3.728,3.096-3.728c0.935,0,1.521,0.419,1.869,1.011h0.028l0.07-0.853h1.841   c-0.028,0.463-0.056,1.055-0.056,2.11V251.301z M227.738,248.137c0-0.13-0.014-0.274-0.042-0.404   c-0.154-0.578-0.558-0.969-1.144-0.969c-0.781,0-1.395,0.723-1.395,2.009c0,1.055,0.502,1.879,1.381,1.879   c0.558,0,0.99-0.376,1.129-0.882c0.056-0.174,0.07-0.404,0.07-0.593V248.137z"/>
	<path d="M237.992,250.059c0,0.925,0.028,1.676,0.056,2.269h-1.841l-0.098-0.997h-0.042c-0.265,0.434-0.907,1.156-2.134,1.156   c-1.395,0-2.399-0.896-2.399-3.078v-4.147h2.12v3.801c0,1.025,0.321,1.647,1.074,1.647c0.586,0,0.935-0.419,1.06-0.766   c0.056-0.131,0.083-0.289,0.083-0.478v-4.205h2.12V250.059z"/>
	<path d="M239.696,247.516c0-0.882-0.028-1.619-0.056-2.255h1.841l0.098,0.983h0.042c0.279-0.463,0.962-1.142,2.106-1.142   c1.395,0,2.44,0.968,2.44,3.049v4.176h-2.12v-3.916c0-0.91-0.307-1.531-1.074-1.531c-0.586,0-0.935,0.419-1.088,0.823   c-0.056,0.145-0.07,0.347-0.07,0.549v4.075h-2.12V247.516z"/>
	<path d="M254.329,251.301c0,1.358-0.265,2.472-1.046,3.18c-0.739,0.664-1.757,0.867-2.762,0.867c-0.906,0-1.841-0.188-2.455-0.535   l0.418-1.676c0.433,0.26,1.171,0.534,1.98,0.534c1.004,0,1.771-0.549,1.771-1.864v-0.447h-0.028c-0.404,0.577-1.06,0.91-1.841,0.91   c-1.688,0-2.887-1.416-2.887-3.439c0-2.283,1.408-3.728,3.096-3.728c0.935,0,1.521,0.419,1.869,1.011h0.028l0.07-0.853h1.841   c-0.028,0.463-0.056,1.055-0.056,2.11V251.301z M252.209,248.137c0-0.13-0.014-0.274-0.042-0.404   c-0.154-0.578-0.558-0.969-1.144-0.969c-0.781,0-1.395,0.723-1.395,2.009c0,1.055,0.502,1.879,1.381,1.879   c0.558,0,0.99-0.376,1.129-0.882c0.056-0.174,0.07-0.404,0.07-0.593V248.137z"/>
	<path d="M257.665,249.495c0.056,0.91,0.935,1.344,1.925,1.344c0.725,0,1.311-0.102,1.883-0.304l0.279,1.488   c-0.697,0.304-1.548,0.448-2.469,0.448c-2.315,0-3.64-1.388-3.64-3.598c0-1.792,1.074-3.771,3.445-3.771   c2.203,0,3.04,1.777,3.04,3.525c0,0.376-0.042,0.708-0.07,0.867H257.665z M260.162,247.992c0-0.535-0.223-1.431-1.2-1.431   c-0.893,0-1.255,0.853-1.311,1.431H260.162z"/>
	<path d="M263.399,247.516c0-0.882-0.027-1.619-0.056-2.255h1.841l0.098,0.983h0.042c0.279-0.463,0.962-1.142,2.105-1.142   c1.396,0,2.441,0.968,2.441,3.049v4.176h-2.12v-3.916c0-0.91-0.307-1.531-1.074-1.531c-0.586,0-0.935,0.419-1.088,0.823   c-0.056,0.145-0.069,0.347-0.069,0.549v4.075h-2.12V247.516z"/>
	<path d="M277.211,242.299c-1.019,1.431-1.743,3.295-1.743,5.925c0,2.572,0.767,4.407,1.743,5.852h-0.948   c-0.879-1.199-1.827-3.049-1.827-5.866c0.014-2.832,0.948-4.696,1.827-5.91H277.211z"/>
	<path d="M278.411,250.796c0.544,0.36,1.325,0.636,2.162,0.636c1.241,0,1.967-0.68,1.967-1.662c0-0.896-0.503-1.431-1.771-1.922   c-1.534-0.578-2.482-1.416-2.482-2.774c0-1.518,1.213-2.645,3.04-2.645c0.948,0,1.66,0.231,2.064,0.477l-0.335,1.026   c-0.293-0.188-0.921-0.462-1.771-0.462c-1.283,0-1.771,0.794-1.771,1.459c0,0.91,0.571,1.358,1.868,1.879   c1.59,0.636,2.385,1.43,2.385,2.86c0,1.503-1.06,2.818-3.277,2.818c-0.906,0-1.896-0.289-2.398-0.636L278.411,250.796z"/>
	<path d="M286.768,243.368c0,0.434-0.293,0.78-0.781,0.78c-0.446,0-0.739-0.347-0.739-0.78s0.308-0.795,0.768-0.795   C286.461,242.573,286.768,242.92,286.768,243.368z M285.401,252.327v-6.994h1.227v6.994H285.401z"/>
	<path d="M290.144,243.657v1.676h1.758v0.969h-1.758v3.771c0,0.867,0.237,1.358,0.921,1.358c0.335,0,0.53-0.029,0.711-0.087   l0.056,0.968c-0.236,0.087-0.613,0.174-1.088,0.174c-0.571,0-1.031-0.202-1.324-0.535c-0.335-0.39-0.475-1.011-0.475-1.835v-3.814   h-1.046v-0.969h1.046v-1.3L290.144,243.657z"/>
	<path d="M298.932,250.405c0,0.737,0.015,1.373,0.057,1.922H297.9l-0.07-1.142h-0.027c-0.308,0.563-1.032,1.301-2.231,1.301   c-1.061,0-2.329-0.622-2.329-3.063v-4.09h1.227v3.858c0,1.329,0.405,2.24,1.507,2.24c0.822,0,1.395-0.593,1.617-1.171   c0.07-0.174,0.112-0.404,0.112-0.65v-4.277h1.227V250.405z"/>
	<path d="M305.713,250.651c0,0.606,0.028,1.199,0.098,1.676h-1.102l-0.098-0.882h-0.042c-0.376,0.55-1.102,1.041-2.064,1.041   c-1.366,0-2.063-0.997-2.063-2.009c0-1.69,1.45-2.615,4.059-2.601v-0.145c0-0.563-0.153-1.619-1.534-1.604   c-0.642,0-1.297,0.188-1.771,0.521l-0.279-0.853c0.559-0.361,1.381-0.607,2.231-0.607c2.064,0,2.566,1.46,2.566,2.847V250.651z    M304.527,248.758c-1.339-0.028-2.858,0.217-2.858,1.575c0,0.838,0.529,1.214,1.144,1.214c0.893,0,1.464-0.578,1.659-1.171   c0.042-0.145,0.056-0.289,0.056-0.404V248.758z"/>
	<path d="M309.118,243.657v1.676h1.758v0.969h-1.758v3.771c0,0.867,0.237,1.358,0.921,1.358c0.335,0,0.53-0.029,0.711-0.087   l0.056,0.968c-0.236,0.087-0.613,0.174-1.088,0.174c-0.571,0-1.031-0.202-1.324-0.535c-0.335-0.39-0.475-1.011-0.475-1.835v-3.814   h-1.046v-0.969h1.046v-1.3L309.118,243.657z"/>
	<path d="M313.624,243.368c0,0.434-0.293,0.78-0.781,0.78c-0.446,0-0.739-0.347-0.739-0.78s0.308-0.795,0.768-0.795   C313.317,242.573,313.624,242.92,313.624,243.368z M312.258,252.327v-6.994h1.227v6.994H312.258z"/>
	<path d="M315.996,245.333l1.325,3.916c0.223,0.65,0.404,1.229,0.544,1.807h0.042c0.153-0.578,0.349-1.156,0.571-1.807l1.312-3.916   h1.282l-2.649,6.994h-1.172l-2.565-6.994H315.996z"/>
	<path d="M322.776,249.062c0.028,1.72,1.074,2.428,2.315,2.428c0.879,0,1.423-0.159,1.869-0.361l0.223,0.91   c-0.433,0.202-1.186,0.448-2.259,0.448c-2.078,0-3.319-1.431-3.319-3.54c0-2.11,1.199-3.758,3.166-3.758   c2.217,0,2.789,1.994,2.789,3.28c0,0.261-0.014,0.448-0.042,0.593H322.776z M326.375,248.151c0.014-0.795-0.321-2.052-1.701-2.052   c-1.256,0-1.785,1.17-1.883,2.052H326.375z"/>
	<path d="M329.084,247.516c0-0.824-0.015-1.532-0.057-2.183h1.074l0.056,1.388h0.042c0.307-0.939,1.06-1.532,1.883-1.532   c0.126,0,0.223,0.015,0.335,0.029v1.199c-0.126-0.029-0.251-0.029-0.419-0.029c-0.864,0-1.479,0.665-1.646,1.619   c-0.027,0.173-0.042,0.39-0.042,0.592v3.729h-1.227V247.516z"/>
	<path d="M336.645,242.588h1.214v4.696h0.042c0.251-0.376,0.502-0.723,0.739-1.04l2.873-3.656h1.506l-3.403,4.133l3.668,5.606   h-1.437l-3.082-4.783l-0.906,1.069v3.714h-1.214V242.588z"/>
	<path d="M350.273,248.772c0,2.587-1.743,3.714-3.361,3.714c-1.813,0-3.235-1.388-3.235-3.599c0-2.326,1.492-3.699,3.347-3.699   C348.962,245.188,350.273,246.648,350.273,248.772z M344.932,248.845c0,1.531,0.837,2.688,2.036,2.688   c1.172,0,2.05-1.142,2.05-2.717c0-1.185-0.571-2.673-2.021-2.673C345.56,246.143,344.932,247.529,344.932,248.845z"/>
	<path d="M351.824,247.227c0-0.737-0.015-1.315-0.057-1.894h1.088l0.07,1.156h0.027c0.335-0.65,1.116-1.301,2.231-1.301   c0.935,0,2.385,0.578,2.385,2.977v4.162h-1.227v-4.031c0-1.127-0.405-2.066-1.562-2.066c-0.795,0-1.423,0.592-1.646,1.3   c-0.056,0.159-0.084,0.376-0.084,0.593v4.205h-1.227V247.227z"/>
	<path d="M360.989,243.657v1.676h1.758v0.969h-1.758v3.771c0,0.867,0.237,1.358,0.921,1.358c0.335,0,0.53-0.029,0.711-0.087   l0.056,0.968c-0.236,0.087-0.613,0.174-1.088,0.174c-0.571,0-1.031-0.202-1.324-0.535c-0.335-0.39-0.475-1.011-0.475-1.835v-3.814   h-1.046v-0.969h1.046v-1.3L360.989,243.657z"/>
	<path d="M364.729,249.062c0.028,1.72,1.074,2.428,2.315,2.428c0.879,0,1.423-0.159,1.869-0.361l0.223,0.91   c-0.433,0.202-1.186,0.448-2.259,0.448c-2.078,0-3.319-1.431-3.319-3.54c0-2.11,1.199-3.758,3.166-3.758   c2.217,0,2.789,1.994,2.789,3.28c0,0.261-0.015,0.448-0.042,0.593H364.729z M368.327,248.151c0.014-0.795-0.321-2.052-1.701-2.052   c-1.256,0-1.785,1.17-1.883,2.052H368.327z"/>
	<path d="M371.565,245.333l0.962,1.503c0.266,0.391,0.475,0.737,0.698,1.127h0.027c0.224-0.404,0.446-0.766,0.684-1.142l0.935-1.488   h1.339l-2.302,3.382l2.357,3.612h-1.381l-1.004-1.575c-0.266-0.404-0.488-0.795-0.726-1.214h-0.027   c-0.224,0.419-0.446,0.795-0.712,1.214l-0.976,1.575h-1.354l2.399-3.569l-2.287-3.425H371.565z"/>
	<path d="M379.112,243.657v1.676h1.758v0.969h-1.758v3.771c0,0.867,0.237,1.358,0.921,1.358c0.335,0,0.53-0.029,0.711-0.087   l0.056,0.968c-0.236,0.087-0.613,0.174-1.088,0.174c-0.571,0-1.031-0.202-1.324-0.535c-0.335-0.39-0.475-1.011-0.475-1.835v-3.814   h-1.046v-0.969h1.046v-1.3L379.112,243.657z"/>
	<path d="M381.514,254.075c0.976-1.43,1.743-3.294,1.743-5.896c0-2.601-0.753-4.436-1.743-5.881h0.948   c0.878,1.185,1.827,3.049,1.827,5.881c-0.015,2.832-0.949,4.682-1.827,5.896H381.514z"/>
</g>
<g>
	<path d="M207.957,190.076c-0.327,0.146-1.053,0.37-1.979,0.37c-2.079,0-3.431-1.31-3.431-3.268c0-1.972,1.452-3.413,3.702-3.413   c0.74,0,1.395,0.172,1.737,0.344l-0.285,0.887c-0.299-0.146-0.769-0.305-1.452-0.305c-1.581,0-2.435,1.099-2.435,2.421   c0,1.481,1.025,2.395,2.392,2.395c0.712,0,1.182-0.158,1.538-0.304L207.957,190.076z"/>
	<path d="M215.57,187.046c0,2.368-1.78,3.4-3.431,3.4c-1.851,0-3.303-1.27-3.303-3.294c0-2.13,1.523-3.387,3.417-3.387   C214.231,183.766,215.57,185.102,215.57,187.046z M210.117,187.112c0,1.402,0.854,2.461,2.079,2.461   c1.196,0,2.093-1.045,2.093-2.487c0-1.085-0.584-2.447-2.064-2.447C210.758,184.639,210.117,185.908,210.117,187.112z"/>
	<path d="M223.083,180.908v7.739c0,0.568,0.028,1.217,0.057,1.653h-1.11l-0.057-1.111h-0.042c-0.37,0.715-1.196,1.257-2.321,1.257   c-1.666,0-2.961-1.31-2.961-3.255c-0.014-2.13,1.424-3.426,3.089-3.426c1.068,0,1.765,0.463,2.079,0.966h0.028v-3.823H223.083z    M221.844,186.504c0-0.146-0.014-0.344-0.057-0.489c-0.185-0.728-0.868-1.336-1.808-1.336c-1.296,0-2.064,1.058-2.064,2.46   c0,1.297,0.697,2.368,2.036,2.368c0.84,0,1.609-0.529,1.836-1.389c0.043-0.159,0.057-0.317,0.057-0.503V186.504z"/>
	<path d="M226.566,182.099c0,0.396-0.299,0.714-0.797,0.714c-0.456,0-0.754-0.317-0.754-0.714s0.313-0.728,0.783-0.728   C226.253,181.371,226.566,181.688,226.566,182.099z M225.171,190.301v-6.403h1.253v6.403H225.171z"/>
	<path d="M229.198,187.311c0.028,1.574,1.096,2.223,2.363,2.223c0.897,0,1.452-0.146,1.908-0.33l0.228,0.833   c-0.441,0.186-1.21,0.41-2.306,0.41c-2.121,0-3.388-1.31-3.388-3.241s1.224-3.439,3.231-3.439c2.264,0,2.848,1.825,2.848,3.003   c0,0.238-0.014,0.41-0.043,0.542H229.198z M232.871,186.478c0.015-0.728-0.327-1.879-1.737-1.879c-1.281,0-1.822,1.072-1.922,1.879   H232.871z"/>
	<path d="M235.629,185.896c0-0.754-0.014-1.402-0.057-1.998h1.096l0.057,1.271h0.043c0.313-0.86,1.082-1.402,1.922-1.402   c0.128,0,0.228,0.013,0.342,0.026v1.098c-0.128-0.026-0.256-0.026-0.427-0.026c-0.883,0-1.509,0.608-1.68,1.481   c-0.029,0.159-0.043,0.357-0.043,0.543v3.413h-1.253V185.896z"/>
	<path d="M242.133,182.363v1.534h1.794v0.887h-1.794v3.453c0,0.793,0.242,1.243,0.939,1.243c0.342,0,0.541-0.026,0.726-0.079   l0.057,0.886c-0.242,0.08-0.626,0.159-1.11,0.159c-0.584,0-1.054-0.186-1.353-0.489c-0.342-0.357-0.484-0.927-0.484-1.681v-3.492   h-1.068v-0.887h1.068v-1.19L242.133,182.363z"/>
	<path d="M245.946,187.311c0.028,1.574,1.096,2.223,2.363,2.223c0.897,0,1.452-0.146,1.908-0.33l0.228,0.833   c-0.441,0.186-1.21,0.41-2.306,0.41c-2.121,0-3.388-1.31-3.388-3.241s1.224-3.439,3.231-3.439c2.264,0,2.848,1.825,2.848,3.003   c0,0.238-0.015,0.41-0.043,0.542H245.946z M249.619,186.478c0.015-0.728-0.327-1.879-1.737-1.879c-1.281,0-1.822,1.072-1.922,1.879   H249.619z"/>
	<path d="M252.206,189.123c0.384,0.212,1.039,0.45,1.666,0.45c0.897,0,1.324-0.41,1.324-0.952c0-0.556-0.356-0.847-1.267-1.165   c-1.252-0.423-1.836-1.045-1.836-1.812c0-1.031,0.911-1.878,2.377-1.878c0.698,0,1.31,0.172,1.68,0.396l-0.299,0.847   c-0.271-0.158-0.769-0.384-1.41-0.384c-0.74,0-1.139,0.397-1.139,0.873c0,0.529,0.398,0.768,1.295,1.099   c1.182,0.41,1.808,0.966,1.808,1.918c0,1.138-0.954,1.932-2.563,1.932c-0.754,0-1.452-0.186-1.936-0.45L252.206,189.123z"/>
	<path d="M261.057,181.384h5.168v0.966h-3.916v2.964h3.617v0.952h-3.617v4.035h-1.252V181.384z"/>
	<path d="M268.215,187.311c0.028,1.574,1.096,2.223,2.363,2.223c0.896,0,1.451-0.146,1.907-0.33l0.228,0.833   c-0.441,0.186-1.21,0.41-2.306,0.41c-2.122,0-3.389-1.31-3.389-3.241s1.225-3.439,3.231-3.439c2.264,0,2.848,1.825,2.848,3.003   c0,0.238-0.015,0.41-0.043,0.542H268.215z M271.888,186.478c0.014-0.728-0.328-1.879-1.737-1.879c-1.281,0-1.822,1.072-1.922,1.879   H271.888z"/>
	<path d="M275.343,187.311c0.028,1.574,1.096,2.223,2.362,2.223c0.897,0,1.452-0.146,1.908-0.33l0.228,0.833   c-0.441,0.186-1.21,0.41-2.306,0.41c-2.122,0-3.389-1.31-3.389-3.241s1.225-3.439,3.231-3.439c2.264,0,2.848,1.825,2.848,3.003   c0,0.238-0.015,0.41-0.043,0.542H275.343z M279.016,186.478c0.014-0.728-0.328-1.879-1.737-1.879c-1.281,0-1.822,1.072-1.922,1.879   H279.016z"/>
	<path d="M287.71,180.908v7.739c0,0.568,0.028,1.217,0.058,1.653h-1.111l-0.057-1.111h-0.043c-0.37,0.715-1.195,1.257-2.32,1.257   c-1.665,0-2.961-1.31-2.961-3.255c-0.015-2.13,1.424-3.426,3.089-3.426c1.068,0,1.766,0.463,2.079,0.966h0.028v-3.823H287.71z    M286.472,186.504c0-0.146-0.015-0.344-0.057-0.489c-0.186-0.728-0.869-1.336-1.809-1.336c-1.295,0-2.064,1.058-2.064,2.46   c0,1.297,0.698,2.368,2.036,2.368c0.84,0,1.608-0.529,1.837-1.389c0.042-0.159,0.057-0.317,0.057-0.503V186.504z"/>
	<path d="M289.799,180.908h1.238v4.021h0.029c0.441-0.715,1.238-1.164,2.349-1.164c1.723,0,2.919,1.323,2.919,3.254   c0,2.289-1.566,3.427-3.104,3.427c-0.997,0-1.794-0.357-2.321-1.19h-0.028l-0.071,1.045h-1.067   c0.028-0.437,0.057-1.085,0.057-1.653V180.908z M291.037,187.734c0,0.146,0.015,0.291,0.058,0.423   c0.228,0.808,0.968,1.363,1.879,1.363c1.324,0,2.093-0.992,2.093-2.461c0-1.283-0.712-2.381-2.064-2.381   c-0.84,0-1.637,0.556-1.894,1.429c-0.042,0.146-0.071,0.304-0.071,0.489V187.734z"/>
	<path d="M302.735,188.767c0,0.556,0.028,1.098,0.1,1.534h-1.125l-0.1-0.807h-0.043c-0.384,0.502-1.124,0.952-2.106,0.952   c-1.396,0-2.107-0.913-2.107-1.839c0-1.548,1.48-2.395,4.143-2.381v-0.133c0-0.516-0.156-1.481-1.565-1.469   c-0.655,0-1.324,0.173-1.809,0.477l-0.284-0.78c0.569-0.331,1.409-0.556,2.277-0.556c2.107,0,2.62,1.336,2.62,2.606V188.767z    M301.525,187.033c-1.367-0.026-2.919,0.198-2.919,1.442c0,0.767,0.541,1.11,1.168,1.11c0.911,0,1.494-0.528,1.693-1.071   c0.043-0.132,0.058-0.265,0.058-0.37V187.033z"/>
	<path d="M309.665,190.076c-0.328,0.146-1.054,0.37-1.979,0.37c-2.078,0-3.431-1.31-3.431-3.268c0-1.972,1.452-3.413,3.701-3.413   c0.74,0,1.396,0.172,1.737,0.344l-0.285,0.887c-0.299-0.146-0.769-0.305-1.452-0.305c-1.58,0-2.435,1.099-2.435,2.421   c0,1.481,1.025,2.395,2.393,2.395c0.711,0,1.182-0.158,1.537-0.304L309.665,190.076z"/>
	<path d="M312.367,186.835h0.028c0.171-0.226,0.398-0.503,0.598-0.728l2.036-2.21h1.494l-2.647,2.633l3.032,3.771h-1.538   l-2.362-3.069l-0.641,0.661v2.408h-1.239v-9.393h1.239V186.835z"/>
</g>
<g>
	<path d="M177.746,135l-1.811,8.711h-1.174l1.811-8.711H177.746z"/>
	<path d="M178.042,143.711l0.905-4.433c0.156-0.698,0.255-1.306,0.325-1.822h1.047l-0.17,1.228h0.028   c0.608-0.879,1.542-1.37,2.532-1.37c0.82,0,1.74,0.427,1.74,1.731c0,0.285-0.057,0.673-0.127,1.009l-0.764,3.657h-1.16l0.75-3.619   c0.042-0.245,0.085-0.529,0.085-0.801c0-0.62-0.269-1.086-1.075-1.086c-0.834,0-2.023,0.918-2.334,2.469l-0.622,3.037H178.042z"/>
	<path d="M185.736,143.711l1.131-5.415h-0.919l0.184-0.84h0.905l0.071-0.337c0.169-0.865,0.509-1.667,1.117-2.171   c0.438-0.361,1.033-0.556,1.627-0.556c0.467,0,0.778,0.077,0.948,0.168l-0.255,0.854c-0.184-0.078-0.424-0.117-0.693-0.117   c-0.934,0-1.386,0.827-1.584,1.861l-0.057,0.298h1.514l-0.17,0.84h-1.527l-1.118,5.415H185.736z"/>
	<path d="M196.16,139.911c0,1.938-1.5,3.942-3.805,3.942c-1.711,0-2.673-1.164-2.673-2.572c0-2.068,1.57-3.968,3.791-3.968   C195.325,137.313,196.16,138.593,196.16,139.911z M190.898,141.242c0,1.021,0.623,1.758,1.613,1.758   c1.386,0,2.433-1.628,2.433-3.089c0-0.724-0.368-1.745-1.598-1.745C191.874,138.166,190.898,139.808,190.898,141.242z"/>
	<path d="M196.979,143.711l0.834-4.032c0.156-0.814,0.269-1.642,0.34-2.223h1.032c-0.057,0.439-0.113,0.879-0.184,1.356h0.042   c0.438-0.853,1.174-1.499,2.093-1.499c0.113,0,0.24,0.013,0.339,0.025l-0.226,1.061c-0.085-0.014-0.198-0.026-0.326-0.026   c-1.018,0-1.923,1.125-2.221,2.585l-0.565,2.753H196.979z"/>
	<path d="M201.477,143.711l0.905-4.433c0.142-0.698,0.241-1.306,0.311-1.822h1.033l-0.17,1.176h0.028   c0.637-0.879,1.5-1.318,2.405-1.318c1.047,0,1.542,0.607,1.599,1.396c0.608-0.904,1.485-1.383,2.503-1.396   c0.792,0,1.669,0.465,1.669,1.642c0,0.284-0.042,0.711-0.113,1.06l-0.764,3.696h-1.146l0.735-3.605   c0.057-0.246,0.099-0.556,0.099-0.814c0-0.659-0.269-1.086-1.033-1.086c-0.849,0-1.867,0.905-2.15,2.301l-0.651,3.205h-1.131   l0.764-3.671c0.057-0.284,0.085-0.517,0.085-0.762c0-0.53-0.156-1.073-1.019-1.073c-0.849,0-1.923,1.034-2.192,2.365l-0.622,3.141   H201.477z"/>
	<path d="M217.43,143.711c0-0.375,0.071-0.97,0.156-1.615h-0.028c-0.736,1.305-1.683,1.758-2.659,1.758   c-1.217,0-1.966-0.879-1.966-2.068c0-2.185,1.754-4.472,4.739-4.472c0.665,0,1.372,0.104,1.853,0.232l-0.707,3.27   c-0.226,1.086-0.311,2.197-0.283,2.896H217.43z M218.194,138.257c-0.155-0.052-0.41-0.091-0.806-0.091   c-1.782,0-3.239,1.681-3.239,3.426c0,0.697,0.269,1.383,1.174,1.383c0.976,0,2.136-1.163,2.475-2.831L218.194,138.257z"/>
	<path d="M223.299,135.956l-0.311,1.5h1.641l-0.184,0.84h-1.641l-0.623,3.037c-0.085,0.349-0.142,0.672-0.142,0.995   c0,0.375,0.198,0.607,0.651,0.607c0.212,0,0.396-0.013,0.552-0.052l-0.057,0.84c-0.212,0.078-0.566,0.116-0.905,0.116   c-1.033,0-1.443-0.568-1.443-1.215c0-0.361,0.057-0.711,0.156-1.163l0.665-3.166h-0.976l0.17-0.84h0.976l0.24-1.164   L223.299,135.956z"/>
	<path d="M224.699,143.711l1.315-6.255h1.16l-1.301,6.255H224.699z M226.227,135.724c0.014-0.413,0.354-0.724,0.764-0.724   c0.424,0,0.707,0.284,0.707,0.672c-0.014,0.427-0.339,0.724-0.806,0.724C226.481,136.396,226.227,136.111,226.227,135.724z"/>
	<path d="M234.515,139.911c0,1.938-1.5,3.942-3.805,3.942c-1.711,0-2.673-1.164-2.673-2.572c0-2.068,1.57-3.968,3.791-3.968   C233.68,137.313,234.515,138.593,234.515,139.911z M229.252,141.242c0,1.021,0.623,1.758,1.613,1.758   c1.386,0,2.433-1.628,2.433-3.089c0-0.724-0.368-1.745-1.598-1.745C230.229,138.166,229.252,139.808,229.252,141.242z"/>
	<path d="M235.334,143.711l0.905-4.433c0.156-0.698,0.255-1.306,0.325-1.822h1.047l-0.17,1.228h0.028   c0.608-0.879,1.542-1.37,2.532-1.37c0.82,0,1.74,0.427,1.74,1.731c0,0.285-0.057,0.673-0.127,1.009l-0.764,3.657h-1.16l0.75-3.619   c0.042-0.245,0.085-0.529,0.085-0.801c0-0.62-0.269-1.086-1.075-1.086c-0.834,0-2.023,0.918-2.334,2.469l-0.622,3.037H235.334z"/>
	<path d="M242.943,142.625c0.325,0.182,0.905,0.388,1.471,0.388c0.792,0,1.301-0.465,1.301-1.021c0-0.491-0.241-0.788-0.962-1.15   c-0.792-0.4-1.23-0.956-1.23-1.603c0-1.086,1.032-1.926,2.475-1.926c0.623,0,1.174,0.155,1.429,0.311l-0.325,0.813   c-0.241-0.129-0.679-0.284-1.188-0.284c-0.707,0-1.216,0.4-1.216,0.943c0,0.453,0.325,0.737,0.948,1.047   c0.764,0.388,1.273,0.943,1.273,1.642c0,1.318-1.16,2.055-2.603,2.055c-0.735-0.013-1.4-0.206-1.711-0.426L242.943,142.625z"/>
	<path d="M248.147,143.711l1.91-9.176h1.174l-1.202,5.751h0.028c0.198-0.22,0.453-0.466,0.637-0.634l2.404-2.196h1.457l-2.984,2.571   l2.037,3.684h-1.287l-1.655-3.089l-0.863,0.711l-0.495,2.378H248.147z"/>
	<path d="M258.938,143.711c0-0.375,0.071-0.97,0.156-1.615h-0.028c-0.736,1.305-1.683,1.758-2.659,1.758   c-1.217,0-1.966-0.879-1.966-2.068c0-2.185,1.754-4.472,4.739-4.472c0.665,0,1.372,0.104,1.853,0.232l-0.707,3.27   c-0.226,1.086-0.311,2.197-0.283,2.896H258.938z M259.702,138.257c-0.155-0.052-0.41-0.091-0.806-0.091   c-1.782,0-3.239,1.681-3.239,3.426c0,0.697,0.269,1.383,1.174,1.383c0.976,0,2.136-1.163,2.475-2.831L259.702,138.257z"/>
	<path d="M261.795,143.711l0.905-4.433c0.156-0.698,0.255-1.306,0.325-1.822h1.047l-0.17,1.228h0.028   c0.608-0.879,1.542-1.37,2.532-1.37c0.82,0,1.739,0.427,1.739,1.731c0,0.285-0.056,0.673-0.127,1.009l-0.764,3.657h-1.16   l0.75-3.619c0.042-0.245,0.085-0.529,0.085-0.801c0-0.62-0.269-1.086-1.075-1.086c-0.835,0-2.022,0.918-2.334,2.469l-0.622,3.037   H261.795z"/>
	<path d="M273.873,143.711c0-0.375,0.07-0.97,0.155-1.615H274c-0.735,1.305-1.683,1.758-2.659,1.758   c-1.216,0-1.966-0.879-1.966-2.068c0-2.185,1.754-4.472,4.738-4.472c0.665,0,1.372,0.104,1.854,0.232l-0.707,3.27   c-0.227,1.086-0.312,2.197-0.283,2.896H273.873z M274.637,138.257c-0.155-0.052-0.41-0.091-0.806-0.091   c-1.782,0-3.239,1.681-3.239,3.426c0,0.697,0.269,1.383,1.174,1.383c0.976,0,2.136-1.163,2.476-2.831L274.637,138.257z"/>
	<path d="M276.729,143.711l1.909-9.176h1.175l-1.91,9.176H276.729z"/>
	<path d="M287.083,134.768c-1.485,1.538-2.971,3.916-2.971,6.901c0,1.176,0.198,2.301,0.777,3.567h-0.891   c-0.58-1.061-0.905-2.21-0.905-3.593c0-3.09,1.584-5.48,2.984-6.876H287.083z"/>
	<path d="M294.579,143.711l0.679-4.704c0.127-0.827,0.34-2.107,0.509-2.947h-0.042c-0.438,0.879-0.977,1.913-1.485,2.805   l-2.843,4.795h-0.892l-0.707-4.691c-0.142-1.008-0.24-2.017-0.297-2.908h-0.043c-0.197,0.802-0.495,2.12-0.721,2.947l-1.302,4.704   h-1.104l2.476-8.711h1.499l0.75,4.989c0.099,0.749,0.198,1.537,0.227,2.184h0.042c0.297-0.646,0.708-1.422,1.118-2.146l2.941-5.027   h1.542l-1.217,8.711H294.579z"/>
	<path d="M302.513,143.362c-0.51,0.258-1.344,0.491-2.264,0.491c-1.811,0-2.603-1.138-2.603-2.521c0-1.887,1.527-4.02,3.734-4.02   c1.301,0,2.009,0.711,2.009,1.615c0,1.642-2.023,2.068-4.555,2.029c-0.057,0.271-0.015,0.854,0.142,1.189   c0.269,0.568,0.82,0.84,1.527,0.84c0.806,0,1.414-0.22,1.839-0.427L302.513,143.362z M301.211,138.153   c-1.117,0-1.952,0.995-2.249,1.978c1.853,0.026,3.296-0.207,3.296-1.188C302.258,138.438,301.833,138.153,301.211,138.153z"/>
	<path d="M311.253,134.535l-1.5,7.186c-0.127,0.659-0.24,1.383-0.282,1.99h-1.075l0.184-1.241h-0.028   c-0.622,0.893-1.485,1.384-2.461,1.384c-1.33,0-2.051-0.995-2.051-2.275c0-2.223,1.811-4.265,4.229-4.265   c0.438,0,0.92,0.091,1.217,0.22l0.608-2.998H311.253z M309.286,138.438c-0.227-0.154-0.622-0.271-1.117-0.271   c-1.641,0-2.914,1.604-2.914,3.271c0,0.749,0.283,1.538,1.287,1.538c0.905,0,1.995-0.943,2.292-2.353L309.286,138.438z"/>
	<path d="M311.407,143.711l1.315-6.255h1.159l-1.301,6.255H311.407z M312.935,135.724c0.014-0.413,0.354-0.724,0.764-0.724   c0.425,0,0.707,0.284,0.707,0.672c-0.014,0.427-0.339,0.724-0.806,0.724C313.189,136.396,312.935,136.111,312.935,135.724z"/>
	<path d="M321.322,137.456l-0.919,4.433c-0.156,0.698-0.241,1.306-0.312,1.822h-1.047l0.17-1.176h-0.028   c-0.608,0.813-1.499,1.318-2.404,1.318c-0.877,0-1.811-0.388-1.811-1.81c0-0.298,0.042-0.646,0.127-1.06l0.75-3.528h1.159   l-0.721,3.489c-0.071,0.349-0.113,0.646-0.113,0.917c0,0.646,0.283,1.086,1.089,1.086c0.849,0,1.938-0.917,2.221-2.287l0.665-3.205   H321.322z"/>
	<path d="M322.099,143.711l0.905-4.433c0.142-0.698,0.24-1.306,0.312-1.822h1.032l-0.17,1.176h0.028   c0.637-0.879,1.5-1.318,2.405-1.318c1.046,0,1.541,0.607,1.598,1.396c0.608-0.904,1.485-1.383,2.504-1.396   c0.792,0,1.669,0.465,1.669,1.642c0,0.284-0.042,0.711-0.113,1.06l-0.764,3.696h-1.146l0.735-3.605   c0.057-0.246,0.099-0.556,0.099-0.814c0-0.659-0.269-1.086-1.032-1.086c-0.849,0-1.867,0.905-2.149,2.301l-0.651,3.205h-1.132   l0.765-3.671c0.057-0.284,0.085-0.517,0.085-0.762c0-0.53-0.156-1.073-1.019-1.073c-0.849,0-1.924,1.034-2.192,2.365l-0.623,3.141   H322.099z"/>
	<path d="M332.466,145.236c1.485-1.551,2.97-3.942,2.97-6.928c0-1.163-0.197-2.301-0.777-3.541h0.905   c0.58,1.047,0.891,2.197,0.891,3.567c0,3.089-1.584,5.492-2.984,6.901H332.466z"/>
</g>
<g>
	<path d="M135.806,99.001c-0.319,0.163-1.028,0.413-1.93,0.413c-2.027,0-3.346-1.46-3.346-3.645c0-2.198,1.416-3.807,3.61-3.807   c0.722,0,1.361,0.192,1.694,0.384l-0.278,0.988c-0.292-0.162-0.75-0.339-1.417-0.339c-1.541,0-2.374,1.225-2.374,2.7   c0,1.653,1,2.671,2.333,2.671c0.694,0,1.152-0.177,1.5-0.339L135.806,99.001z"/>
	<path d="M143.237,95.622c0,2.641-1.736,3.792-3.347,3.792c-1.805,0-3.221-1.417-3.221-3.674c0-2.375,1.485-3.777,3.333-3.777   C141.932,91.963,143.237,93.453,143.237,95.622z M137.919,95.696c0,1.564,0.833,2.745,2.027,2.745c1.167,0,2.041-1.166,2.041-2.774   c0-1.21-0.569-2.73-2.013-2.73C138.544,92.937,137.919,94.353,137.919,95.696z"/>
	<path d="M150.572,88.776v8.632c0,0.634,0.028,1.357,0.056,1.844h-1.083l-0.056-1.239h-0.042c-0.361,0.796-1.167,1.401-2.263,1.401   c-1.625,0-2.888-1.46-2.888-3.629c-0.014-2.376,1.388-3.822,3.013-3.822c1.041,0,1.722,0.517,2.027,1.077h0.028v-4.264H150.572z    M149.364,95.017c0-0.162-0.014-0.383-0.055-0.546c-0.181-0.812-0.847-1.49-1.764-1.49c-1.264,0-2.013,1.181-2.013,2.745   c0,1.446,0.68,2.641,1.985,2.641c0.819,0,1.569-0.59,1.792-1.549c0.042-0.177,0.055-0.354,0.055-0.561V95.017z"/>
	<path d="M153.977,90.104c0,0.443-0.292,0.797-0.778,0.797c-0.444,0-0.736-0.354-0.736-0.797c0-0.442,0.306-0.812,0.764-0.812   C153.671,89.292,153.977,89.646,153.977,90.104z M152.616,99.252V92.11h1.222v7.142H152.616z"/>
	<path d="M156.546,95.917c0.028,1.756,1.069,2.479,2.305,2.479c0.875,0,1.417-0.162,1.861-0.369l0.222,0.93   c-0.431,0.207-1.181,0.457-2.25,0.457c-2.069,0-3.305-1.46-3.305-3.615s1.194-3.836,3.152-3.836c2.208,0,2.777,2.036,2.777,3.35   c0,0.266-0.014,0.457-0.042,0.605H156.546z M160.129,94.988c0.014-0.812-0.319-2.095-1.694-2.095c-1.25,0-1.777,1.195-1.875,2.095   H160.129z"/>
	<path d="M162.826,94.338c0-0.841-0.014-1.564-0.056-2.228h1.069l0.056,1.417h0.042c0.306-0.959,1.055-1.564,1.875-1.564   c0.125,0,0.222,0.015,0.333,0.029v1.225c-0.125-0.03-0.25-0.03-0.417-0.03c-0.861,0-1.472,0.679-1.638,1.653   c-0.028,0.177-0.042,0.398-0.042,0.605v3.807h-1.222V94.338z"/>
	<path d="M169.173,90.399v1.711h1.75v0.989h-1.75v3.851c0,0.885,0.236,1.387,0.917,1.387c0.333,0,0.528-0.029,0.708-0.088   l0.055,0.989c-0.236,0.088-0.611,0.177-1.083,0.177c-0.569,0-1.027-0.207-1.319-0.546c-0.333-0.398-0.472-1.033-0.472-1.874v-3.896   h-1.042V92.11h1.042v-1.328L169.173,90.399z"/>
	<path d="M172.896,95.917c0.028,1.756,1.069,2.479,2.305,2.479c0.875,0,1.417-0.162,1.861-0.369l0.222,0.93   c-0.431,0.207-1.181,0.457-2.25,0.457c-2.069,0-3.305-1.46-3.305-3.615s1.194-3.836,3.152-3.836c2.208,0,2.777,2.036,2.777,3.35   c0,0.266-0.014,0.457-0.042,0.605H172.896z M176.479,94.988c0.014-0.812-0.319-2.095-1.694-2.095c-1.25,0-1.777,1.195-1.875,2.095   H176.479z"/>
	<path d="M182.161,99.252v-9.945h1.333l2.985,5.031c0.681,1.166,1.236,2.213,1.667,3.231l0.042-0.015   c-0.111-1.328-0.139-2.538-0.139-4.087v-4.161h1.139v9.945h-1.222l-2.971-5.046c-0.653-1.106-1.278-2.243-1.736-3.32l-0.042,0.015   c0.069,1.254,0.083,2.449,0.083,4.102v4.25H182.161z"/>
	<path d="M195.981,97.541c0,0.62,0.028,1.225,0.097,1.711h-1.097l-0.097-0.9h-0.042c-0.375,0.561-1.097,1.062-2.055,1.062   c-1.361,0-2.055-1.018-2.055-2.051c0-1.727,1.444-2.671,4.041-2.656V94.56c0-0.575-0.153-1.652-1.528-1.638   c-0.639,0-1.291,0.192-1.763,0.531l-0.278-0.871c0.556-0.369,1.375-0.62,2.222-0.62c2.055,0,2.555,1.49,2.555,2.907V97.541z    M194.801,95.607c-1.333-0.029-2.847,0.221-2.847,1.608c0,0.855,0.527,1.239,1.139,1.239c0.889,0,1.458-0.59,1.652-1.195   c0.042-0.147,0.056-0.295,0.056-0.413V95.607z"/>
	<path d="M202.746,99.001c-0.319,0.163-1.028,0.413-1.93,0.413c-2.027,0-3.346-1.46-3.346-3.645c0-2.198,1.416-3.807,3.61-3.807   c0.722,0,1.361,0.192,1.694,0.384l-0.278,0.988c-0.292-0.162-0.75-0.339-1.417-0.339c-1.541,0-2.374,1.225-2.374,2.7   c0,1.653,1,2.671,2.333,2.671c0.694,0,1.152-0.177,1.5-0.339L202.746,99.001z"/>
	<path d="M204.178,88.776h1.222v4.471h0.028c0.194-0.369,0.5-0.708,0.875-0.93c0.361-0.221,0.792-0.354,1.25-0.354   c0.903,0,2.347,0.59,2.347,3.04v4.25h-1.222V95.15c0-1.151-0.403-2.11-1.555-2.11c-0.792,0-1.402,0.59-1.639,1.284   c-0.069,0.192-0.083,0.384-0.083,0.62v4.309h-1.222V88.776z"/>
	<path d="M211.888,94.338c0-0.841-0.014-1.564-0.056-2.228h1.069l0.056,1.417h0.042c0.306-0.959,1.055-1.564,1.875-1.564   c0.125,0,0.222,0.015,0.333,0.029v1.225c-0.125-0.03-0.25-0.03-0.417-0.03c-0.861,0-1.472,0.679-1.638,1.653   c-0.028,0.177-0.042,0.398-0.042,0.605v3.807h-1.222V94.338z"/>
	<path d="M217.846,90.104c0,0.443-0.292,0.797-0.778,0.797c-0.444,0-0.736-0.354-0.736-0.797c0-0.442,0.306-0.812,0.764-0.812   C217.541,89.292,217.846,89.646,217.846,90.104z M216.485,99.252V92.11h1.222v7.142H216.485z"/>
	<path d="M224.526,99.001c-0.319,0.163-1.027,0.413-1.93,0.413c-2.027,0-3.346-1.46-3.346-3.645c0-2.198,1.416-3.807,3.61-3.807   c0.722,0,1.361,0.192,1.694,0.384l-0.278,0.988c-0.292-0.162-0.75-0.339-1.417-0.339c-1.541,0-2.374,1.225-2.374,2.7   c0,1.653,1,2.671,2.333,2.671c0.694,0,1.152-0.177,1.5-0.339L224.526,99.001z"/>
	<path d="M225.959,88.776h1.222v4.471h0.028c0.194-0.369,0.5-0.708,0.875-0.93c0.361-0.221,0.792-0.354,1.25-0.354   c0.903,0,2.347,0.59,2.347,3.04v4.25h-1.222V95.15c0-1.151-0.403-2.11-1.555-2.11c-0.792,0-1.403,0.59-1.639,1.284   c-0.069,0.192-0.083,0.384-0.083,0.62v4.309h-1.222V88.776z"/>
	<path d="M235.084,90.399v1.711h1.75v0.989h-1.75v3.851c0,0.885,0.236,1.387,0.917,1.387c0.333,0,0.528-0.029,0.708-0.088   l0.056,0.989c-0.236,0.088-0.611,0.177-1.083,0.177c-0.569,0-1.027-0.207-1.319-0.546c-0.333-0.398-0.472-1.033-0.472-1.874v-3.896   h-1.042V92.11h1.042v-1.328L235.084,90.399z"/>
	<path d="M243.793,89.012c-1.014,1.461-1.736,3.364-1.736,6.05c0,2.626,0.764,4.5,1.736,5.976h-0.944   c-0.875-1.225-1.819-3.113-1.819-5.99c0.014-2.892,0.944-4.795,1.819-6.035H243.793z"/>
	<path d="M245.573,92.11l1.319,3.999c0.222,0.664,0.403,1.254,0.542,1.845h0.042c0.153-0.59,0.347-1.181,0.569-1.845l1.305-3.999   h1.277l-2.638,7.142h-1.167l-2.555-7.142H245.573z"/>
	<path d="M252.323,95.917c0.028,1.756,1.069,2.479,2.305,2.479c0.875,0,1.417-0.162,1.861-0.369l0.222,0.93   c-0.431,0.207-1.181,0.457-2.25,0.457c-2.069,0-3.305-1.46-3.305-3.615s1.194-3.836,3.152-3.836c2.208,0,2.777,2.036,2.777,3.35   c0,0.266-0.014,0.457-0.042,0.605H252.323z M255.906,94.988c0.014-0.812-0.319-2.095-1.694-2.095c-1.25,0-1.777,1.195-1.875,2.095   H255.906z"/>
	<path d="M258.602,94.338c0-0.841-0.014-1.564-0.056-2.228h1.069l0.056,1.417h0.042c0.306-0.959,1.055-1.564,1.875-1.564   c0.125,0,0.222,0.015,0.333,0.029v1.225c-0.125-0.03-0.25-0.03-0.417-0.03c-0.861,0-1.472,0.679-1.638,1.653   c-0.028,0.177-0.042,0.398-0.042,0.605v3.807h-1.222V94.338z"/>
	<path d="M263.2,88.776h1.208v4.485h0.027c0.431-0.797,1.208-1.298,2.292-1.298c1.68,0,2.846,1.476,2.846,3.63   c0,2.553-1.527,3.821-3.026,3.821c-0.973,0-1.75-0.398-2.264-1.328h-0.027l-0.07,1.166h-1.041c0.028-0.487,0.056-1.21,0.056-1.844   V88.776z M264.408,96.39c0,0.162,0.014,0.324,0.056,0.472c0.222,0.9,0.944,1.52,1.833,1.52c1.291,0,2.041-1.106,2.041-2.745   c0-1.431-0.694-2.656-2.014-2.656c-0.819,0-1.597,0.62-1.847,1.594c-0.042,0.162-0.069,0.339-0.069,0.546V96.39z"/>
	<path d="M275.824,97.541c0,0.62,0.028,1.225,0.098,1.711h-1.097l-0.098-0.9h-0.042c-0.375,0.561-1.097,1.062-2.055,1.062   c-1.36,0-2.055-1.018-2.055-2.051c0-1.727,1.443-2.671,4.04-2.656V94.56c0-0.575-0.152-1.652-1.527-1.638   c-0.639,0-1.291,0.192-1.764,0.531l-0.277-0.871c0.556-0.369,1.375-0.62,2.222-0.62c2.055,0,2.555,1.49,2.555,2.907V97.541z    M274.645,95.607c-1.333-0.029-2.847,0.221-2.847,1.608c0,0.855,0.527,1.239,1.139,1.239c0.889,0,1.458-0.59,1.652-1.195   c0.042-0.147,0.056-0.295,0.056-0.413V95.607z"/>
	<path d="M277.799,88.776h1.222v10.476h-1.222V88.776z"/>
	<path d="M281.758,95.917c0.027,1.756,1.069,2.479,2.305,2.479c0.875,0,1.416-0.162,1.86-0.369l0.223,0.93   c-0.431,0.207-1.181,0.457-2.25,0.457c-2.068,0-3.305-1.46-3.305-3.615s1.194-3.836,3.152-3.836c2.208,0,2.777,2.036,2.777,3.35   c0,0.266-0.015,0.457-0.042,0.605H281.758z M285.34,94.988c0.014-0.812-0.319-2.095-1.694-2.095c-1.249,0-1.777,1.195-1.874,2.095   H285.34z"/>
	<path d="M287.009,99.828l3.86-10.698h0.958l-3.889,10.698H287.009z"/>
	<path d="M292.801,94.043c0-0.752-0.014-1.343-0.056-1.933h1.083l0.069,1.181h0.028c0.333-0.664,1.11-1.328,2.222-1.328   c0.93,0,2.374,0.59,2.374,3.04v4.25H297.3v-4.117c0-1.151-0.403-2.11-1.556-2.11c-0.791,0-1.416,0.605-1.638,1.328   c-0.056,0.163-0.084,0.384-0.084,0.605v4.294h-1.222V94.043z"/>
	<path d="M306.593,95.622c0,2.641-1.736,3.792-3.347,3.792c-1.805,0-3.222-1.417-3.222-3.674c0-2.375,1.486-3.777,3.333-3.777   C305.287,91.963,306.593,93.453,306.593,95.622z M301.274,95.696c0,1.564,0.833,2.745,2.027,2.745c1.166,0,2.041-1.166,2.041-2.774   c0-1.21-0.569-2.73-2.014-2.73C301.899,92.937,301.274,94.353,301.274,95.696z"/>
	<path d="M308.137,94.043c0-0.752-0.014-1.343-0.056-1.933h1.083l0.069,1.181h0.028c0.333-0.664,1.11-1.328,2.222-1.328   c0.93,0,2.374,0.59,2.374,3.04v4.25h-1.222v-4.117c0-1.151-0.403-2.11-1.556-2.11c-0.791,0-1.416,0.605-1.638,1.328   c-0.056,0.163-0.084,0.384-0.084,0.605v4.294h-1.222V94.043z"/>
	<path d="M316.137,92.11l1.319,3.999c0.223,0.664,0.403,1.254,0.542,1.845h0.041c0.153-0.59,0.348-1.181,0.569-1.845l1.306-3.999   h1.277l-2.639,7.142h-1.166l-2.555-7.142H316.137z"/>
	<path d="M322.889,95.917c0.027,1.756,1.069,2.479,2.305,2.479c0.875,0,1.416-0.162,1.86-0.369l0.223,0.93   c-0.431,0.207-1.181,0.457-2.25,0.457c-2.068,0-3.305-1.46-3.305-3.615s1.194-3.836,3.152-3.836c2.208,0,2.777,2.036,2.777,3.35   c0,0.266-0.015,0.457-0.042,0.605H322.889z M326.471,94.988c0.014-0.812-0.319-2.095-1.694-2.095c-1.249,0-1.777,1.195-1.874,2.095   H326.471z"/>
	<path d="M329.167,94.338c0-0.841-0.014-1.564-0.056-2.228h1.069l0.056,1.417h0.041c0.306-0.959,1.056-1.564,1.875-1.564   c0.125,0,0.223,0.015,0.333,0.029v1.225c-0.125-0.03-0.25-0.03-0.416-0.03c-0.861,0-1.472,0.679-1.639,1.653   c-0.028,0.177-0.042,0.398-0.042,0.605v3.807h-1.222V94.338z"/>
	<path d="M333.765,88.776h1.208v4.485H335c0.431-0.797,1.208-1.298,2.292-1.298c1.68,0,2.846,1.476,2.846,3.63   c0,2.553-1.527,3.821-3.026,3.821c-0.973,0-1.75-0.398-2.264-1.328h-0.027l-0.07,1.166h-1.041c0.028-0.487,0.056-1.21,0.056-1.844   V88.776z M334.973,96.39c0,0.162,0.014,0.324,0.056,0.472c0.222,0.9,0.944,1.52,1.833,1.52c1.291,0,2.041-1.106,2.041-2.745   c0-1.431-0.694-2.656-2.014-2.656c-0.819,0-1.597,0.62-1.847,1.594c-0.042,0.162-0.069,0.339-0.069,0.546V96.39z"/>
	<path d="M346.39,97.541c0,0.62,0.028,1.225,0.098,1.711h-1.097l-0.098-0.9h-0.042c-0.374,0.561-1.097,1.062-2.055,1.062   c-1.36,0-2.055-1.018-2.055-2.051c0-1.727,1.443-2.671,4.04-2.656V94.56c0-0.575-0.152-1.652-1.527-1.638   c-0.639,0-1.291,0.192-1.764,0.531l-0.277-0.871c0.556-0.369,1.375-0.62,2.222-0.62c2.055,0,2.555,1.49,2.555,2.907V97.541z    M345.21,95.607c-1.333-0.029-2.847,0.221-2.847,1.608c0,0.855,0.527,1.239,1.139,1.239c0.889,0,1.458-0.59,1.652-1.195   c0.042-0.147,0.056-0.295,0.056-0.413V95.607z"/>
	<path d="M348.364,88.776h1.222v10.476h-1.222V88.776z"/>
	<path d="M352.323,95.917c0.027,1.756,1.069,2.479,2.305,2.479c0.875,0,1.416-0.162,1.86-0.369l0.223,0.93   c-0.431,0.207-1.181,0.457-2.25,0.457c-2.068,0-3.305-1.46-3.305-3.615s1.194-3.836,3.152-3.836c2.208,0,2.777,2.036,2.777,3.35   c0,0.266-0.014,0.457-0.042,0.605H352.323z M355.905,94.988c0.014-0.812-0.319-2.095-1.694-2.095c-1.249,0-1.777,1.195-1.874,2.095   H355.905z"/>
	<path d="M362.797,89.307v9.945h-1.223v-9.945H362.797z"/>
	<path d="M365.005,94.043c0-0.752-0.014-1.343-0.056-1.933h1.083l0.069,1.181h0.028c0.333-0.664,1.11-1.328,2.222-1.328   c0.93,0,2.374,0.59,2.374,3.04v4.25h-1.222v-4.117c0-1.151-0.402-2.11-1.556-2.11c-0.791,0-1.416,0.605-1.638,1.328   c-0.056,0.163-0.084,0.384-0.084,0.605v4.294h-1.222V94.043z"/>
	<path d="M372.84,99.252v-6.153h-0.931V92.11h0.931v-0.339c0-1.003,0.222-1.918,0.777-2.494c0.458-0.472,1.069-0.664,1.639-0.664   c0.444,0,0.806,0.104,1.041,0.207l-0.166,1.003c-0.181-0.088-0.417-0.162-0.777-0.162c-1.042,0-1.306,0.959-1.306,2.065v0.384   h1.625v0.989h-1.625v6.153H372.84z"/>
	<path d="M382.672,95.622c0,2.641-1.736,3.792-3.347,3.792c-1.805,0-3.222-1.417-3.222-3.674c0-2.375,1.486-3.777,3.333-3.777   C381.366,91.963,382.672,93.453,382.672,95.622z M377.354,95.696c0,1.564,0.833,2.745,2.027,2.745c1.166,0,2.041-1.166,2.041-2.774   c0-1.21-0.569-2.73-2.014-2.73C377.979,92.937,377.354,94.353,377.354,95.696z"/>
	<path d="M383.438,101.037c0.973-1.46,1.736-3.364,1.736-6.02c0-2.656-0.75-4.53-1.736-6.005h0.944   c0.875,1.21,1.819,3.113,1.819,6.005c-0.014,2.892-0.944,4.781-1.819,6.02H383.438z"/>
</g>
<line fill="none" stroke="#000000" stroke-miterlimit="10" x1="129.003" y1="119.607" x2="382.336" y2="119.607"/>
<line fill="none" stroke="#000000" stroke-width="0.5" x1="152.338" y1="164.273" x2="369.671" y2="164.273"/>
<polygon points="152.338,159.272 152.338,168.606 140.671,164.272 "/>
<polygon points="382.67,115.606 382.67,124.94 393.003,120.606 "/>
</svg>