<?xml version="1.0" encoding="UTF-8" standalone="no"?>
<!DOCTYPE svg PUBLIC "-//W3C//DTD SVG 1.1//EN" "http://www.w3.org/Graphics/SVG/1.1/DTD/svg11.dtd">
<svg xmlns="http://www.w3.org/2000/svg" xmlns:xlink="http://www.w3.org/1999/xlink" width="760" height="600">
  <marker id="arr" viewBox="0 0 8 8" refX="0" refY="4" markerUnits="strokeWidth" markerWidth="8" markerHeight="8" orient="auto" fill="none" stroke="black">
    <path d="M 0,0 l 8,4 l -8,4" />
  </marker>
  <rect x="90" y="25" width="580" height="550" style="fill:white;stroke:black;stroke-width:1;" />
  <rect x="653" y="30" width="12" height="12" style="fill:white;stroke:black;stroke-width:1;" />
  <rect x="650" y="32" width="6" height="3" style="fill:white;stroke:black;stroke-width:1;" />
  <rect x="650" y="37" width="6" height="3" style="fill:white;stroke:black;stroke-width:1;" />
  <text x="390" y="50" font-size="16" font-family="Arial,sans-serif" text-anchor="middle">&lt;&lt;subsystem&gt;&gt;</text>
  <text x="390" y="70" font-size="16" font-family="Arial,sans-serif" text-anchor="middle" font-weight="600">Multimediasystem</text>
  <ellipse cx="295" cy="240" rx="90" ry="50" style="fill:white;stroke:black;stroke-width:1;" />
  <text x="295" y="223" font-size="16" font-family="Arial,sans-serif" text-anchor="middle">Musik-CD erstellen</text>
  <line x1="206" y1="232" x2="384" y2="232" style="stroke:black;stroke-width:1;" />
  <text x="295" y="251" font-size="16" font-family="Arial,sans-serif" text-anchor="middle" font-weight="600">extension points:</text>
  <text x="295" y="268" font-size="16" font-family="Arial,sans-serif" text-anchor="middle">Beschriftung</text>
  <ellipse cx="190" cy="380" rx="80" ry="35" style="fill:white;stroke:black;stroke-width:1;" />
  <text x="190" y="376" font-size="16" font-family="Arial,sans-serif" text-anchor="middle">Musik-CD</text>
  <text x="190" y="395" font-size="16" font-family="Arial,sans-serif" text-anchor="middle">brennen</text>
  <ellipse cx="390" cy="480" rx="80" ry="35" style="fill:white;stroke:black;stroke-width:1;" />
  <text x="390" y="486" font-size="16" font-family="Arial,sans-serif" text-anchor="middle">Booklet erstellen</text>
  <ellipse cx="530" cy="370" rx="80" ry="35" style="fill:white;stroke:black;stroke-width:1;" />
  <text x="530" y="376" font-size="16" font-family="Arial,sans-serif" text-anchor="middle">CD beschriften</text>
  <polyline points="420,140 628,140 640,152 640,205 420,205 420,140" style="fill:white;stroke:black;stroke-width:1;" />
  <polyline points="628,140 640,152 628,152 628,140" style="fill:white;stroke:black;stroke-width:1;" />
  <text x="425" y="155" font-size="13" font-family="Arial,sans-serif" text-anchor="start">Condition:</text>
  <text x="435" y="170" font-size="13" font-family="Arial,sans-serif" text-anchor="start">{Benutzer wünscht Beschriftung}</text>
  <text x="425" y="185" font-size="13" font-family="Arial,sans-serif" text-anchor="start">extension point:</text>
  <text x="435" y="200" font-size="13" font-family="Arial,sans-serif" text-anchor="start">Beschriftung</text>
  <circle cx="35" cy="227" r="6" style="fill:none;stroke:black;stroke-width:1;" />
  <line x1="35" y1="235" x2="35" y2="254" style="stroke:black;stroke-width:1;" />
  <line x1="25" y1="241" x2="45" y2="241" style="stroke:black;stroke-width:1;" />
  <line x1="35" y1="254" x2="25" y2="265" style="stroke:black;stroke-width:1;" />
  <line x1="35" y1="254" x2="45" y2="265" style="stroke:black;stroke-width:1;" />
  <text x="35" y="282" font-size="12" font-family="Arial,sans-serif" text-anchor="middle" font-weight="600">Benutzer</text>
  <circle cx="725" cy="357" r="6" style="fill:none;stroke:black;stroke-width:1;" />
  <line x1="725" y1="363" x2="725" y2="383" style="stroke:black;stroke-width:1;" />
  <line x1="735" y1="371" x2="715" y2="371" style="stroke:black;stroke-width:1;" />
  <line x1="725" y1="383" x2="735" y2="395" style="stroke:black;stroke-width:1;" />
  <line x1="725" y1="383" x2="715" y2="395" style="stroke:black;stroke-width:1;" />
  <text x="725" y="411" font-size="12" font-family="Arial,sans-serif" text-anchor="middle" font-weight="600">Benutzer</text>
  <polyline points="295,290 385,438" marker-end="url(#arr)" style="fill:none;stroke:black;stroke-width:1;stroke-dasharray:4,2;" />
  <text x="340" y="350" font-size="13" font-family="Arial,sans-serif" text-anchor="start">&lt;&lt;include&gt;&gt;</text>
  <polyline points="295,290 220,342" marker-end="url(#arr)" style="fill:none;stroke:black;stroke-width:1;stroke-dasharray:4,2;" />
  <text x="250" y="315" font-size="13" font-family="Arial,sans-serif" text-anchor="end">&lt;&lt;include&gt;&gt;</text>
  <circle cx="530" cy="240" r="5" style="fill:none;stroke:black;stroke-width:1;" />
  <polyline points="525,240 393,240" marker-end="url(#arr)" style="fill:none;stroke:black;stroke-width:1;stroke-dasharray:4,2;" />
  <text x="460" y="235" font-size="13" font-family="Arial,sans-serif" text-anchor="middle">&lt;&lt;extend&gt;&gt;</text>
  <polyline points="530,205 530,235" style="fill:none;stroke:black;stroke-width:1;stroke-dasharray:2,1;" />
  <polyline points="530,245 530,335" style="fill:none;stroke:black;stroke-width:1;stroke-dasharray:2,1;" />
  <polyline points="50,240 205,240" style="fill:none;stroke:black;stroke-width:1;" />
  <polyline points="50,245 137,354" style="fill:none;stroke:black;stroke-width:1;" />
  <polyline points="35,290 35,480 310,480" style="fill:none;stroke:black;stroke-width:1;" />
  <polyline points="710,370 610,370" style="fill:none;stroke:black;stroke-width:1;" />
</svg>
