<?xml version="1.0" encoding="UTF-8" standalone="no"?>
<!DOCTYPE svg PUBLIC "-//W3C//DTD SVG 1.0//EN" "http://www.w3.org/TR/2001/PR-SVG-20010719/DTD/svg10.dtd">
<svg width="29cm" height="9cm" viewBox="199 128 562 173" xmlns="http://www.w3.org/2000/svg" xmlns:xlink="http://www.w3.org/1999/xlink">
  <g>
    <ellipse style="fill: #ffffff" cx="440" cy="240" rx="20" ry="20"/>
    <ellipse style="fill: none; fill-opacity:0; stroke-width: 2; stroke: #000000" cx="440" cy="240" rx="20" ry="20"/>
    <line style="fill: none; fill-opacity:0; stroke-width: 2; stroke: #000000" x1="425.6" y1="225.6" x2="454.4" y2="254.4"/>
    <line style="fill: none; fill-opacity:0; stroke-width: 2; stroke: #000000" x1="425.6" y1="254.4" x2="454.4" y2="225.6"/>
  </g>
  <g>
    <line style="fill: none; fill-opacity:0; stroke-width: 2; stroke: #000000" x1="280" y1="180" x2="292" y2="180"/>
    <polyline style="fill: none; fill-opacity:0; stroke-width: 2; stroke: #000000" points="320,180 308,180 292,188 "/>
    <text font-size="12.7998" style="fill: #000000;text-anchor:middle;font-family:sans-serif;font-style:normal;font-weight:normal" x="300" y="176">
      <tspan x="300" y="176"></tspan>
    </text>
  </g>
  <g>
    <line style="fill: none; fill-opacity:0; stroke-width: 2; stroke: #000000" x1="340" y1="180" x2="352" y2="180"/>
    <polyline style="fill: none; fill-opacity:0; stroke-width: 2; stroke: #000000" points="380,180 368,180 352,188 "/>
    <text font-size="12.7998" style="fill: #000000;text-anchor:middle;font-family:sans-serif;font-style:normal;font-weight:normal" x="360" y="176">
      <tspan x="360" y="176"></tspan>
    </text>
  </g>
  <g>
    <ellipse style="fill: #ffffff" cx="220" cy="240" rx="20" ry="20"/>
    <ellipse style="fill: none; fill-opacity:0; stroke-width: 2; stroke: #000000" cx="220" cy="240" rx="20" ry="20"/>
  </g>
  <polyline style="fill: none; fill-opacity:0; stroke-width: 2; stroke: #000000" points="220,220 220,180 280,180 280,180 "/>
  <polyline style="fill: none; fill-opacity:0; stroke-width: 2; stroke: #000000" points="320,180 341,180 341,180 319,180 319,180 340,180 "/>
  <polyline style="fill: none; fill-opacity:0; stroke-width: 2; stroke: #000000" points="380,180 440,180 440,220 "/>
  <polyline style="fill: none; fill-opacity:0; stroke-width: 2; stroke: #000000" points="440,260 440,300 220,300 220,260 "/>
  <text font-size="12.7998" style="fill: #000000;text-anchor:start;font-family:sans-serif;font-style:normal;font-weight:normal" x="300" y="160">
    <tspan x="300" y="160">x</tspan>
  </text>
  <text font-size="12.7998" style="fill: #000000;text-anchor:start;font-family:sans-serif;font-style:normal;font-weight:normal" x="360" y="160">
    <tspan x="360" y="160">y</tspan>
  </text>
  <g>
    <line style="fill: none; fill-opacity:0; stroke-width: 2; stroke: #000000" x1="600" y1="160" x2="612" y2="160"/>
    <polyline style="fill: none; fill-opacity:0; stroke-width: 2; stroke: #000000" points="640,160 628,160 612,168 "/>
    <text font-size="12.7998" style="fill: #000000;text-anchor:middle;font-family:sans-serif;font-style:normal;font-weight:normal" x="620" y="156">
      <tspan x="620" y="156"></tspan>
    </text>
  </g>
  <g>
    <line style="fill: none; fill-opacity:0; stroke-width: 2; stroke: #000000" x1="600" y1="200" x2="612" y2="200"/>
    <polyline style="fill: none; fill-opacity:0; stroke-width: 2; stroke: #000000" points="640,200 628,200 612,208 "/>
    <text font-size="12.7998" style="fill: #000000;text-anchor:middle;font-family:sans-serif;font-style:normal;font-weight:normal" x="620" y="196">
      <tspan x="620" y="196"></tspan>
    </text>
  </g>
  <polyline style="fill: none; fill-opacity:0; stroke-width: 2; stroke: #000000" points="640,160 661,160 661,200 640,200 "/>
  <polyline style="fill: none; fill-opacity:0; stroke-width: 2; stroke: #000000" points="600,160 579,160 579,200 600,200 "/>
  <polyline style="fill: none; fill-opacity:0; stroke-width: 2; stroke: #000000" points="660,180 660,180 740,180 740,220 "/>
  <polyline style="fill: none; fill-opacity:0; stroke-width: 2; stroke: #000000" points="580,180 520,180 520,220 520,220 "/>
  <g>
    <ellipse style="fill: #ffffff" cx="740" cy="240" rx="20" ry="20"/>
    <ellipse style="fill: none; fill-opacity:0; stroke-width: 2; stroke: #000000" cx="740" cy="240" rx="20" ry="20"/>
    <line style="fill: none; fill-opacity:0; stroke-width: 2; stroke: #000000" x1="725.6" y1="225.6" x2="754.4" y2="254.4"/>
    <line style="fill: none; fill-opacity:0; stroke-width: 2; stroke: #000000" x1="725.6" y1="254.4" x2="754.4" y2="225.6"/>
  </g>
  <g>
    <ellipse style="fill: #ffffff" cx="520" cy="240" rx="20" ry="20"/>
    <ellipse style="fill: none; fill-opacity:0; stroke-width: 2; stroke: #000000" cx="520" cy="240" rx="20" ry="20"/>
  </g>
  <polyline style="fill: none; fill-opacity:0; stroke-width: 2; stroke: #000000" points="520,260 520,300 740,300 740,260 "/>
  <text font-size="12.7998" style="fill: #000000;text-anchor:start;font-family:sans-serif;font-style:normal;font-weight:normal" x="620" y="140">
    <tspan x="620" y="140">x</tspan>
  </text>
  <text font-size="12.7998" style="fill: #000000;text-anchor:start;font-family:sans-serif;font-style:normal;font-weight:normal" x="620" y="240">
    <tspan x="620" y="240">y</tspan>
  </text>
</svg>
